<?xml version="1.0" encoding="UTF-8" standalone="no"?>
<!-- Created with Inkscape (http://www.inkscape.org/) -->

<svg
   width="165.35715mm"
   height="169.42809mm"
   viewBox="0 0 165.35715 169.4281"
   version="1.1"
   id="svg1"
   xmlns="http://www.w3.org/2000/svg"
   xmlns:svg="http://www.w3.org/2000/svg">
  <defs
     id="defs1" />
  <g
     id="layer1"
     transform="translate(-15.651603,-51.440009)">
    <path
       fill="none"
       vector-effect="non-scaling-stroke"
       d="m 16.174436,208.6902 -0.02226,0.13485 -0.04803,0.29567 -0.01052,0.0653 -0.101131,0.6513 -0.06967,0.4488 0.009,0.0273 0.0145,0.0206 0.02177,0.0187 0.46355,0.38143 0.06884,0.0567 0.07532,-0.0889 0.533789,0.15759 -0.09058,0.11036 -1.031303,-0.24633 0.06931,0.37465 0.22077,0.0516 0.0029,-0.0124 0.101249,0.0227 -0.0017,0.0117 0.208771,0.0483 -0.212061,0.2524 0.0053,0.006 0.06386,-0.0772 0.07704,0.0636 -0.05728,0.0713 -0.0018,0.006 -4.61e-4,0.006 8.63e-4,0.006 0.0031,0.006 0.0047,0.004 0.0057,0.002 0.0063,4.5e-4 0.0061,-0.002 0.0046,-0.003 0.02897,-0.0347 0.01531,-0.0186 0.03748,-0.045 -0.07674,-0.0627 0.125892,-0.15583 0.168682,0.13761 -0.01835,0.0234 -0.105509,0.1354 -0.02207,0.0297 -0.07091,0.10601 -0.04896,0.0972 -0.04074,0.098 -0.03781,0.10942 -0.09311,-0.0253 0.0091,-0.0401 -0.09793,-0.0218 -0.02102,0.0951 0.09784,0.0218 0.0073,-0.0332 0.09276,0.0253 -0.03104,0.11662 -0.0063,0.0448 -0.0043,0.0396 -0.0093,0.0736 -0.0059,0.0638 -0.0028,0.0689 -0.0019,0.0712 0.0015,0.0608 0.01553,0.16907 0.03955,0.24673 0.01057,0.0572 0.09427,0.51111 0.0071,0.0299 0.126823,0.5406 0.0026,0.0119 0.0044,0.0189 0.143229,0.53591 0.01408,0.0452 0.184555,0.50108 0.01167,0.0351 0.257414,0.65664 0.161341,-0.12383 0.117309,0.17877 0.01214,-0.009 0.101601,0.14379 0.01044,-0.008 0.316655,0.46455 0.016,0.0238 0.223007,-0.30151 0.103087,-0.13921 0.0044,0.003 0.04393,0.0291 0.235023,0.15213 -0.04594,0.14576 -0.04935,0.15686 -0.01886,-0.005 -0.06221,0.21137 -0.03058,-0.0116 -0.01473,0.0485 0.02174,0.007 -0.01604,0.0465 -0.01415,0.0446 -0.02189,0.0545 -0.02549,0.051 -0.02101,0.0376 -0.01155,0.0173 -0.03758,-0.0242 -0.108541,0.10484 0.05851,0.0578 0.151147,-0.13554 0.01151,-0.0172 0.01077,-0.0208 0.105281,-0.24084 0.171208,0.0516 -0.01775,0.19396 -0.0221,0.0888 -0.01038,0.0408 -0.06142,0.19352 -0.07412,0.22989 -0.02241,0.0724 -0.0012,0.0212 0.0038,0.025 0.01798,0.0208 0.02563,0.0104 0.02514,0.002 0.02052,-0.0108 0.01397,-0.0181 0.01011,-0.0222 0.0053,-0.0361 0.0684,-0.3148 0.04174,-0.14454 0.04656,-0.15013 0.07118,-0.16123 0.08602,0.027 0.101045,0.0321 -0.02554,0.17358 0.0076,0.13841 0.01654,0.10472 0.02686,0.14488 0.01199,0.0137 0.01383,0.006 0.01186,0.001 0.05919,-1.6e-4 0.01585,-0.0107 0.0092,-0.0145 0.0052,-0.0178 0.0055,-0.0209 0.05599,-0.25328 0.01907,-0.0721 0.01326,-0.0476 0.01121,-0.0348 0.02665,-0.0747 0.190194,0.0214 -0.01552,0.39078 0.0026,0.20869 0.03708,0.18973 0.05747,0.0386 0.07647,-0.009 0.0385,-0.21319 -0.134316,0.0143 -0.01089,-0.22877 0.0037,-0.14782 0.0049,-0.17902 0.0241,0.002 0.01093,-0.0871 0.01186,10e-4 0.05629,-0.54577 0.05407,0.005 0.106515,0.0117 -0.04341,0.33962 -0.05299,-0.004 -0.0057,0.0625 -0.02013,0.007 -0.0181,0.16583 -0.0063,-4.5e-4 -0.0059,0.0528 0.05708,0.006 0.0029,-0.0149 0.04718,0.004 0.01309,0.001 0.01569,10e-4 0.178502,0.0149 -0.0063,0.25869 0.0023,0.10022 0.01152,-6.4e-4 0.01694,0.0265 0.01909,0.0103 0.01974,0.001 0.01734,-0.011 0.012,-0.0211 0.01637,-0.20136 0.01252,-0.0886 0.0099,-0.0547 0.104889,0.0105 0.0932,0.0103 -8.18e-4,0.18549 -0.0032,0.0547 -0.0057,0.0617 0.007,0.019 0.01879,0.0122 0.02506,0.002 0.01968,-0.01 0.01077,-0.0208 0.0682,-0.29735 0.191113,0.0205 -0.0547,0.91655 0.03357,-3.4e-4 0.04734,-0.79837 0.0065,-0.0945 0.04144,0.003 0.02339,-0.2 -0.07886,-0.007 0.02736,-0.24298 0.159875,0.021 0.02375,-0.21312 0.032,0.0104 0.07065,0.0239 0.09974,0.009 0.105217,0.0115 0.416873,0.0342 0.353191,0.0211 0.439614,0.0241 0.0064,0.0548 0.03288,0.28073 0.16623,1.42021 0.276367,-0.0358 -0.04266,-0.34346 0.974685,-0.1295 -0.03836,-0.29203 -0.804224,0.0963 -0.119515,0.0137 -0.04273,0.005 -0.08719,-0.68097 -0.01074,-0.0841 -0.03315,-0.25839 -0.0065,-0.0508 0.174267,-0.006 1.554912,-0.45426 0.03052,-0.01 0.257763,-0.22998 0.837556,-0.24697 0.09993,0.32698 0.01873,0.0805 0.01301,-0.003 0.04749,0.16039 0.0076,0.0255 0.0063,0.0203 0.05532,0.17732 0.02657,0.11712 0.01178,0.001 0.01308,0.002 0.166478,0.56027 0.13458,-0.0433 0.0098,0.0309 -0.06053,0.0209 -0.0046,0.009 -0.0059,0.009 -0.0072,0.006 -0.0061,0.009 -0.0017,0.007 -0.0062,0.007 -0.0072,0.006 -0.0067,0.0108 0.0014,0.007 0.04154,0.14026 0.208383,-0.0669 -0.06386,-0.19684 -0.04995,0.0171 -0.0096,-0.0295 0.04023,-0.0137 -0.04126,-0.12866 0.0078,-0.003 -0.133983,-0.41486 0.0052,-0.0176 0.0052,-0.0151 -0.02273,-0.009 -0.176649,-0.54824 -0.0069,-0.021 -0.0072,-0.0225 -0.05007,-0.15605 -0.003,-0.011 -0.0034,-0.0101 -0.03421,-0.10598 0.171345,-0.0549 0.01231,-0.004 0.07966,-0.0255 0.0087,-0.003 0.232315,-0.0746 0.03068,-0.0103 0.02899,-0.01 0.04206,-0.0145 0.0022,0.005 0.01303,0.0404 0.0017,0.006 0.0056,0.0193 0.0034,0.01 0.0034,0.01 0.01187,0.0359 0.0049,0.0148 0.0055,0.0164 0.06132,-0.0204 0.08637,-0.0277 0.156115,-0.0501 0.08408,-0.0271 0.404786,-0.12992 0.156026,-0.0473 0.118286,-0.0359 0.08647,-0.0263 0.131865,-0.0414 0.257118,-0.0896 0.137324,-0.0487 0.203869,-0.0724 0.01753,-0.006 0.12435,-0.0414 0.105594,-0.0309 0.115413,0.3797 0.09026,0.28854 0.284516,0.94405 0.258779,-0.0847 -0.26096,-0.80748 -0.251824,-0.79959 0.254684,-0.0835 0.328061,-0.10361 0.435184,1.35706 0.0045,0.0127 0.0049,0.0153 0.04804,0.15032 0.222652,-0.0731 -0.118368,-0.37166 -0.0029,-0.009 -0.0029,-0.009 -0.06708,-0.21031 0.05429,-0.017 -0.0095,-0.0261 -0.02085,-0.0648 -0.108908,-0.34024 0.128926,-0.0396 0.270236,0.32796 0.108064,-0.0308 0.255863,0.82072 0.347159,-0.12016 -0.03411,-0.0919 -0.01632,-0.0519 0.11457,-0.0359 0.01626,0.0519 0.02995,0.0985 0.03594,-0.0128 0.496693,-0.15826 -0.348814,-1.10962 0.460698,-0.12378 -0.07698,-0.31373 0.03944,-0.01 -0.02929,-0.11814 -0.03513,0.008 -0.04043,-0.17529 -0.0073,-0.0273 0.153122,-0.0283 0.03086,0.10677 0.414051,-0.099 0.424094,-0.0626 0.21993,-0.0548 0.222713,-0.0629 0.02309,-0.008 0.02155,-0.0149 0.01543,-0.0163 0.0122,-0.0164 0.0093,-0.0233 0.0039,-0.0198 0.365468,-0.066 0.01767,0.0979 0.06004,-0.0104 -0.01419,-0.0785 0.069,-0.002 0.09317,-0.0107 0.15575,-0.0203 0.182615,-0.0422 0.05273,-0.0165 0.04473,-0.0186 0.04052,-0.0256 0.04257,-0.0327 0.0247,-0.0241 0.01488,-0.028 0.373197,-0.0646 0.248785,-0.0275 0.194651,-0.009 0.249266,0.003 0.360232,0.0178 0.206871,0.0215 0.155895,0.0189 0.254188,0.0402 0.721672,0.15648 0.616789,0.13402 0.797697,0.13796 0.200492,0.0413 0.05175,0.0127 0.09752,0.0249 0.1472,0.0545 0.06563,0.024 0.03171,0.0109 0.119617,0.0214 0.157165,0.0279 0.03614,0.007 0.03991,0.008 0.285608,0.0601 0.07432,0.0155 0.07876,0.0145 0.350701,0.0643 0.347404,0.0704 0.384794,0.0786 0.02419,0.005 0.0849,0.0182 0.144827,0.031 0.190228,0.0409 0.353204,0.0719 0.006,0.002 0.178567,0.0365 0.148426,0.0303 0.451075,0.089 0.02341,0.005 0.143131,0.0309 0.15235,0.033 0.04723,0.01 0.137855,0.0331 0.200901,0.0481 0.381004,0.0972 4.38e-4,0.0271 0.0063,0.0228 0.01263,0.0233 0.01815,0.0194 0.02044,0.0139 0.0159,-0.004 0.07302,-0.0129 0.119985,-0.0213 -0.02243,0.041 0.0087,0.0244 -0.02784,0.0659 3.1e-5,0.0182 -0.09003,-0.0218 -0.06872,-0.0157 -0.04704,-0.0109 -0.197533,0.77813 0.0048,0.0386 0.01263,0.0277 0.02713,0.021 0.03613,0.0139 0.18103,0.0501 3.496865,0.95416 0.500005,0.13578 0.09124,0.0248 0.924478,0.24484 0.993708,0.26698 0.07594,0.0202 0.139326,-0.45685 0.109106,0.033 0.638064,0.20483 0.08665,0.0284 0.0312,-0.0857 1.420451,0.45656 0.07112,0.023 0.272803,0.0882 0.08348,0.0164 0.08019,0.007 0.08126,7.7e-4 0.07453,-0.008 0.07169,-0.0152 0.248206,-0.0732 0.256079,-0.0912 0.253749,-0.10336 0.264348,-0.11997 0.316283,-0.17468 0.231983,-0.16239 0.213617,-0.17609 0.198807,-0.18328 0.352339,-0.38685 0.18224,-0.20008 0.17338,-0.19046 0.0805,-0.0892 0.573251,-0.63477 0.316573,-0.34868 0.253906,-0.2782 0.267988,-0.29661 0.332811,-0.37085 0.393246,-0.44589 0.610384,-0.72995 0.410118,-0.5283 0.248501,-0.3314 0.86938,-1.11972 0.409349,-0.53986 0.577459,-0.82504 0.291408,-0.44032 -0.02616,-0.0163 -0.01245,-0.008 0.0077,-0.10147 7.9e-4,-0.0884 -0.0041,-0.0798 0.05481,-0.0264 0.04964,-0.043 0.04952,-0.0682 0.03693,-0.0655 0.02816,-0.0705 0.01382,-0.062 -0.0026,-0.0514 0.06634,-0.0256 0.0661,-0.0284 0.06732,-0.041 0.07297,-0.0492 0.02423,0.0154 0.0232,0.015 0.135409,-0.21088 0.416367,-0.63297 0.500132,-0.78001 0.166331,-0.27006 0.128255,-0.21295 0.152386,-0.2312 0.415727,-0.64203 0.131306,-0.1895 0.244392,-0.38075 0.232086,-0.35814 0.136524,-0.23185 0.136618,-0.20937 0.152318,-0.25923 0.106636,-0.1911 0.102139,-0.18418 0.02342,0.004 0.01967,2.2e-4 0.22656,-0.40093 0.354467,-0.61096 0.102547,-0.18751 0.11978,-0.21209 0.006,0.004 0.125573,-0.22712 -0.01109,-0.005 0.0061,-0.0131 -0.0084,-0.0173 -0.1072,-0.0591 0.128191,-0.24178 0.04531,0.0231 0.01403,-0.026 0.01799,-0.005 0.05178,-0.0983 0.146192,-0.27058 0.168703,-0.3011 0.107392,-0.19735 0.100585,-0.18382 0.06457,-0.14005 0.06677,-0.17926 0.04927,-0.18406 0.02527,-0.14293 0.01652,-0.14269 -0.0013,-0.23392 -0.0099,-0.14811 -0.02164,-0.24391 -0.02332,-0.13173 -0.03949,-0.1619 -0.04757,-0.14347 -0.06733,-0.13991 -0.14057,-0.32472 -0.13287,-0.32772 -0.112592,-0.33725 -0.04004,-0.17388 -0.04612,-0.26246 -0.01661,-0.14636 0.03962,-0.17516 0.09873,-0.49979 0.004,-0.0175 0.0046,-0.0217 0.07372,-0.34696 0.06954,-0.35462 0.07971,-0.35905 0.09015,-0.46723 0.06917,-0.33594 0.116306,-0.55964 0.101687,-0.48799 0.13133,-0.6494 0.108459,-0.50146 0.579471,0.72879 0.0442,-0.0317 0.0055,0.008 0.01787,0.0118 0.0207,0.009 0.02401,0.009 0.02334,0.004 0.03146,0.001 0.0408,-0.01 0.03236,-0.0148 0.03584,-0.0303 0.01711,-0.023 0.01058,-0.0204 0.0059,-0.0168 0.0067,-0.0266 0.0011,-0.0298 -0.002,-0.0265 -0.0077,-0.0221 -0.0059,-0.0166 0.03235,-0.0416 -0.572683,-0.72277 -0.260731,-0.10378 0.09792,-0.24134 0.09393,-0.23433 0.0036,-0.006 0.01081,-0.0156 0.138028,-0.20625 0.01068,-0.0153 0.08475,-0.12472 0.261097,0.32735 0.727661,0.91234 0.01416,0.0112 0.0169,0.008 0.303437,0.0999 0.245941,-0.75286 0.148966,-0.44068 0.01853,-0.0264 0.168428,-0.45133 0.268376,-0.68008 0.420227,-1.08256 0.164441,-0.4122 0.03631,-0.0578 0.458553,-0.66135 -0.0071,-0.006 0.04808,-0.0702 0.08427,0.0498 0.01597,1.3e-4 0.01609,-0.006 0.176879,-0.29157 0.02304,0.0139 0.05844,-0.0963 -0.01291,-0.007 0.164455,-0.28588 0.0068,-0.0243 -0.009,-0.0184 -0.01972,-0.0125 -0.06661,-0.0404 0.546613,-0.86876 0.222027,-0.37067 0.24387,-0.40692 0.0044,-0.008 0.337207,-0.29118 -0.09962,-0.11579 1.053692,-0.92617 -0.09324,-0.12008 0.207396,-0.18255 0.168759,-0.14668 0.26005,-0.23054 0.09594,0.12088 0.29588,-0.24457 0.181057,-0.15321 0.01382,0.005 0.0129,0.002 0.0114,-0.004 0.149934,-0.11669 0.0083,-0.0104 5.3e-4,-0.0143 -0.0036,-0.0122 0.498299,-0.36583 0.0084,-0.007 0.04247,0.0605 0.06959,-0.0519 0.02054,0.028 1.179306,-0.83606 0.02092,0.0289 0.979599,-0.69563 -0.06038,-0.0875 -0.02118,-0.0301 0.3269,-0.2338 0.462663,-0.31571 0.926527,-0.65016 0.550771,-0.3898 0.482273,-0.34747 0.537253,-0.38314 0.574181,-0.37507 0.453904,-0.31368 0.47017,-0.31806 0.161965,-0.0998 0.222845,-0.13964 0.26507,-0.16344 0.309507,-0.19302 0.222251,-0.13796 0.210692,-0.13319 0.229656,-0.15606 0.355821,-0.21937 0.292099,-0.20102 0.0046,-0.003 0.116491,-0.076 0.284589,-0.19212 -0.02045,-0.0316 0.407582,-0.27343 0.506064,-0.33764 0.02029,0.032 0.199929,-0.13225 0.190629,-0.12796 0.169394,-0.11615 0.02648,-0.0173 0.02661,-0.0174 0.06032,-0.0409 0.09109,-0.0627 0.100664,-0.0391 0.272263,-0.10509 0.283193,-0.11399 0.154496,-0.0811 0.183613,-0.0869 0.155143,-0.0778 0.226315,-0.14351 0.18576,-0.1384 0.02833,-0.009 0.113413,-0.0978 0.286865,-0.24992 0.202135,-0.15975 0.144155,-0.1001 0.254672,-0.18598 0.0054,-0.0207 0.203363,-0.14336 0.466711,-0.36651 0.07223,-0.0285 0.0577,-0.0538 0.01604,0.0163 0.167551,-0.11665 0.241495,-0.1509 0.16843,-0.0887 0.149615,-0.0725 0.336175,-0.17669 0.773299,-0.39971 0.665895,-0.3522 0.121871,-0.055 0.583214,-0.31408 0.994798,-0.52149 0.0408,-0.008 0.140065,-0.0669 0.184555,-0.0857 1.251858,-0.63733 1.095005,-0.72612 1.326589,-0.88236 1.198417,-0.79016 1.478766,-0.9756 0.23795,-0.16688 0.0167,0.0225 1.06454,-0.70503 -0.0134,-0.0213 0.21847,-0.13804 1.2051,-0.95529 1.26373,-0.81468 1.33363,-0.83078 0.27989,-0.17298 0.19498,-0.11887 0.0426,-0.017 0.0106,0.002 0.0134,-0.004 0.0115,-0.01 0.004,-0.0125 -0.002,-0.014 0.0886,-0.0368 0.40764,-0.18728 0.36762,-0.16669 0.14533,-0.0659 0.1889,-0.0855 0.0354,-0.018 0.24866,-0.12618 0.12612,-0.064 0.16555,-0.084 0.12171,-0.0638 0.08,-0.0446 0.081,-0.0515 0.1816,-0.11563 0.0374,-0.0234 0.13363,-0.0838 0.41065,-0.26647 0.005,-0.003 0.0818,-0.053 0.29317,-0.18763 0.18831,-0.12423 0.25535,-0.15697 0.13935,-0.0938 0.0821,-0.0573 0.0676,-0.0474 0.25052,-0.18208 0.21241,-0.14703 0.1183,-0.0987 -0.006,-0.008 0.0839,-0.0675 0.0261,-0.0267 0.10325,-0.10643 0.10128,-0.10415 0.089,-0.10549 0.0843,-0.0999 0.11919,-0.15637 0.0958,-0.14283 1.8e-4,-0.0134 0.0134,0.007 0.0132,0.003 0.0127,-8.2e-4 0.0113,-0.009 0.007,-0.0123 0.002,-0.0135 0.20462,-0.0613 0.0985,-0.0398 0.0378,-0.0701 -0.005,0.011 0.0559,-0.0747 0.0533,-0.0662 0.15785,-0.21175 -0.007,-0.0313 0.005,-0.0316 2.2e-4,-0.0447 0.001,-0.0301 0.16009,-0.46336 0.006,-0.0305 8.7e-4,-0.003 0.004,-0.0166 0.006,-0.0453 -7.8e-4,-0.0153 -0.002,-0.026 -0.005,-0.0402 -0.0106,-0.0401 -0.008,-0.0191 -0.0132,-0.033 -0.0204,-0.0273 -0.009,-0.0124 -0.0314,-0.0346 -0.0479,-0.0597 0.0202,-0.13906 0.003,-0.0411 0.0253,-0.11901 0.0917,-0.46897 0.0758,-0.37323 0.0215,-0.38905 0.0207,-1.03965 0.0379,-0.61426 0.0345,-0.50976 0.1737,-0.78054 0.12474,-0.56029 0.15612,-0.3713 0.0273,-0.0122 0.16042,-0.28558 0.2222,-0.35126 0.26952,-0.42358 0.12745,-0.11758 0.0754,-0.095 0.004,-0.0249 0.43013,-0.34033 0.11892,-0.0858 0.4299,-0.15656 0.37796,-0.13507 0.38735,-0.0791 0.15209,-0.0374 0.16055,-0.0469 0.31471,-0.0752 0.27099,-0.0523 0.55886,-0.0902 0.96083,-0.21724 0.84632,-0.56404 0.56294,-0.37553 0.4025,-0.26542 0.47235,-0.32401 0.31574,-0.2828 0.48411,-0.50703 0.91403,-1.09296 0.62354,0.76517 0.15687,-0.13395 -0.61359,-0.77317 0.004,-0.0321 0.0426,-0.0288 -0.005,-0.0105 0.18322,-0.14356 0.3835,-0.30754 0.40708,-0.32952 0.16296,-0.12847 0.64785,-0.50695 0.35248,-0.16414 0.0371,0.0879 0.32007,-0.13316 -0.0398,-0.0894 0.22441,-0.0883 0.35811,-0.1223 0.45848,-0.15829 0.39617,-0.14902 0.62026,-0.23249 0.85791,-0.23288 0.20808,-0.0442 0.36867,-0.0846 0.33635,-0.0885 0.14469,-0.0332 0.34681,-0.0797 0.30742,-0.0739 0.10362,-0.0238 0.48458,-0.11163 0.42426,-0.0972 0.14129,-0.10969 0.0157,0.0238 0.15898,-0.12779 -0.0107,-0.0153 0.11605,-0.089 0.0417,0.0521 0.0339,-0.0292 -0.0251,-0.032 0.0175,-0.0161 -0.0242,-0.03 0.14233,-0.11533 0.33224,-0.26361 0.38945,-0.30563 0.0181,-0.0163 0.0127,-0.0203 0.18038,-0.27442 0.22734,-0.3407 0.19106,-0.28845 0.1438,-0.31646 0.28247,-0.618 0.37364,-0.82506 0.30613,-0.67561 0.24169,-0.52903 0.12091,-0.26809 0.0294,-0.0709 0.011,-0.0343 0.0192,-0.0647 0.009,-0.0275 0.012,-0.0369 0.0131,-0.0418 0.0135,-0.0378 0.0178,-0.0531 0.0216,-0.0624 0.0181,-0.0593 0.0197,-0.058 0.0224,-0.0619 0.0207,-0.0657 0.0143,-0.0475 0.0214,-0.0725 0.015,-0.0412 0.0414,-0.13116 0.18085,-0.55748 -0.11647,-0.13481 0.12633,-0.6253 0.024,-0.32434 0.0341,-0.53448 0.0261,-0.3778 -0.003,-0.11553 -0.001,-0.0467 -0.007,-0.30582 -0.002,-0.079 0.11576,-0.0928 0.009,0.0101 0.0297,-0.007 -0.0351,-0.29399 -0.0116,5.9e-4 0.002,-0.0234 -0.013,-0.47664 -0.0453,-0.40903 -0.0296,-0.28672 -0.0453,-0.40902 -0.0533,-0.48435 -0.0291,-0.14513 -0.0773,-0.39475 -0.11086,-0.4903 -0.10896,-0.48009 -0.19327,-0.77314 -0.16038,-0.76545 -0.0633,-0.34919 -0.0482,-0.33595 7e-5,-0.0764 0.005,-0.27023 10e-4,-0.30992 0.004,-0.35327 0.004,-0.34229 0.10538,-0.43047 8.1e-4,-0.0551 0.0327,-0.17114 0.0863,-0.37628 0.0207,-0.0996 0.0978,-0.22025 0.16957,-0.38541 0.0668,-0.1427 0.0617,-0.12518 0.1429,-0.30257 0.12428,-0.26469 0.0805,-0.13829 0.0936,-0.16117 0.13276,-0.22564 0.20007,-0.34307 0.097,-0.16751 0.0538,-0.09 0.0431,-0.0805 0.0743,-0.14164 0.0769,-0.14379 0.14482,-0.26908 0.0863,-0.16343 0.13895,-0.27346 0.15532,-0.31268 0.0689,-0.13986 0.12647,-0.25565 0.16524,-0.34939 0.1297,-0.28197 0.10359,-0.21981 -0.13263,-0.0572 0.12439,-0.26969 0.0333,-0.0824 0.0153,-0.0212 0.0147,-0.0121 0.006,-0.0154 -0.003,-0.0145 -6.4e-4,-0.0167 0.008,-0.0274 0.0396,-0.093 0.0561,-0.10258 0.0496,-0.0845 0.0285,-0.0712 0.0259,-0.06 0.0751,-0.11583 0.0409,-0.0776 0.0543,-0.0733 0.0274,-0.0323 0.0613,0.0249 0.14205,-0.31276 0.20295,-0.46594 0.26699,-0.60729 0.1985,-0.48651 0.19605,-0.47086 0.14811,-0.35741 0.19394,-0.47291 0.15225,-0.40184 0.1889,-0.49941 0.0395,-0.0981 0.14967,-0.37139 -0.11586,-0.0802 0.0451,-0.0985 0.0966,-0.238 0.12206,-0.33089 0.19752,-0.54108 0.0851,-0.22889 0.17086,-0.47127 0.1424,-0.37814 0.16545,-0.46138 0.11236,-0.29861 0.12007,-0.33653 0.0614,-0.17788 0.16629,-0.48532 0.23072,-0.67204 0.21904,-0.6128 -0.004,-0.0213 -0.006,-0.0261 0.25557,-0.60322 0.0618,-0.17279 0.089,-0.26298 0.1772,-0.54425 0.29372,-0.90461 0.11824,-0.37335 0.0488,0.0181 0.2986,-1.0056 0.0206,0.006 0.0891,-0.28593 -0.0539,-0.018 0.0308,-0.10651 0.20587,-0.67632 0.19973,-0.6409 0.14849,-0.49043 0.13311,-0.43246 0.17862,-0.58816 0.22332,-0.71241 0.21162,-0.659634 0.26431,-0.782274 0.1009,-0.289733 0.0116,-0.01239 0.0268,-0.0098 0.019,-0.01962 0.0432,-0.119832 0.0941,-0.221741 0.13967,-0.289556 0.10786,-0.20842 0.21793,-0.431556 0.1123,-0.231643 0.0949,-0.169082 0.0837,-0.13279 0.0734,-0.131127 0.11251,-0.215419 0.0936,-0.185515 0.12071,-0.185899 0.15352,-0.184064 0.0859,-0.09066 0.11515,-0.09362 0.0934,-0.06121 0.0852,-0.04587 0.0725,-0.06044 0.0848,-0.10127 0.0963,-0.113203 0.10036,-0.123783 0.18376,-0.213138 0.1894,-0.208991 0.16328,-0.176012 0.15801,-0.153393 0.18802,-0.181786 0.14036,-0.13512 0.067,-0.06571 0.17515,-0.171489 0.22998,-0.224985 0.16904,-0.164073 0.21346,-0.214397 0.18084,-0.176877 0.45055,-0.442386 0.34861,-0.346007 0.12788,-0.122471 0.15132,-0.15242 0.0882,-0.09213 0.11083,-0.113773 0.0719,-0.07712 2.11825,-2.073741 0.20089,-0.199862 0.10863,-0.122827 0.11067,-0.136598 0.11133,-0.142393 0.13643,-0.16947 0.21256,-0.26404 0.17503,-0.232812 0.1835,-0.236021 0.15266,-0.19505 0.16936,-0.201945 0.10624,-0.12461 0.14058,-0.155209 0.12939,-0.135036 0.15812,-0.162548 0.28324,-0.267824 0.1255,-0.104466 0.0867,-0.0756 0.16692,-0.138225 0.36699,-0.304054 0.43438,-0.359729 0.50462,-0.421206 0.50996,-0.419389 2.07282,-1.726986 1.20162,-0.995487 2.09828,-1.781572 1.5652,-1.234257 1.22521,-0.923373 0.10663,-0.0804 0.56463,-0.409334 -0.008,-0.0096 0.20482,-0.165973 0.50176,-0.41021 0.0534,0.06424 0.32575,-0.259306 -0.11396,-0.14177 -0.32157,0.269964 0.019,0.02139 -0.49989,0.412792 -0.0194,-0.01559 -0.0371,-0.03778 -0.0322,-0.04225 -0.004,-0.05427 0.013,-0.05471 0.0339,-0.04244 0.002,-0.04755 0.0151,-0.0493 0.0287,-0.05609 0.0307,-0.04216 0.0259,-0.05204 0.0256,-0.06206 0.0249,-0.06533 0.02,-0.06122 0.0134,-0.05583 0.0113,-0.04805 0.0208,-0.02945 0.0464,-0.0068 0.0419,-0.01946 0.0116,-0.0123 0.0285,0.0043 0.0305,-0.01982 0.0294,-0.01324 0.069,-0.04208 0.0269,-0.01773 0.05,0.0048 0.0397,-0.01235 0.0389,-0.01115 0.0462,-0.01762 0.0261,-0.02721 0.001,-0.03992 -0.009,-0.03773 0.0181,-0.03311 0.0367,-0.02321 0.0386,-0.0049 0.0379,-0.0054 0.0382,-0.0055 0.009,0.124601 0.0307,0.003 0.0113,-0.03254 0.008,-0.03676 -0.002,-0.04945 0.0362,-0.0022 0.037,-4.7e-4 0.0358,0.0083 0.0449,0.02078 0.0471,2.26e-4 0.0293,-0.0318 0.006,-0.04906 -0.0216,-0.04882 -0.0409,-0.03288 0.0309,-0.02259 0.0286,-0.03385 0.0152,-0.03642 0.01,-0.04129 0.0398,-6.38e-4 0.0562,0.02656 0.0603,-0.0029 0.0295,-0.0072 0.017,-0.0016 0.0824,-0.01596 0.0311,-0.03258 0.14314,-0.03655 0.0355,0.02336 0.029,0.0196 0.11097,-0.103418 0.0425,-0.07904 0.0492,-6.06e-4 0.035,-0.01341 0.0187,-0.02948 0.0313,-0.06758 0.10446,-0.0355 0.0302,-0.03021 0.0396,-0.04409 0.0163,-0.04706 -0.0212,-0.06714 -0.0218,-0.06915 -0.0244,-0.04536 -0.0413,-0.03264 -0.0586,-0.02974 -0.0582,-0.04266 -0.0386,-0.04381 -0.007,-0.01973 -0.0295,-0.04427 -0.0111,-0.05166 0.0268,-0.06219 0.01,-0.06256 0.008,-0.06287 0.0208,-0.04746 0.0395,-0.04476 0.0205,-0.03884 0.005,-0.05634 0.0212,-0.06417 0.0245,-0.05131 0.0186,-0.06839 -0.0123,-0.06028 -0.0214,-0.07058 -0.0718,-0.113784 -0.0626,-0.113638 -0.0461,-0.08981 -0.0423,-0.06224 -0.076,-0.383268 0.30982,-0.280282 0.16509,-0.14936 0.62604,-0.585192 0.0594,0.915187 0.0329,0.492456 0.008,0.195837 0.008,0.04455 0.0307,0.04827 0.65358,0.847847 0.22453,-0.143465 0.24806,-0.15257 0.22494,-0.139536 0.10915,-0.07161 0.24319,-0.175029 -0.008,-0.01172 0.0633,-0.04248 -0.008,-0.01506 0.0256,-0.01754 0.0265,-0.01142 0.0265,-0.0089 0.025,-0.0109 0.0303,-0.02545 0.008,-0.01914 0.007,-0.01794 0.0223,-0.02767 0.0217,-0.01426 0.0226,-0.0018 0.0219,-0.0028 0.0221,-0.01877 0.0362,-0.01923 0.0263,-0.01993 0.0263,-0.01333 0.0117,-0.01249 0.007,-0.0036 0.0157,-0.01717 0.0662,-0.07161 0.0264,-0.02814 0.0217,-0.0145 0.0104,-0.02345 -0.007,-0.01444 -0.0163,-0.02107 -0.0115,-0.01788 -7.1e-4,-0.02071 0.15616,-0.08871 0.0745,-0.04964 0.067,-0.03661 0.0491,-0.01947 0.0548,-0.03324 0.0444,-0.02901 0.045,-0.03748 0.0273,-0.01856 0.0355,-0.0234 0.0188,-0.02697 0.0963,-0.06042 0.035,-0.02229 -0.0114,-0.01955 0.005,-0.02965 0.0223,-0.01565 0.0379,-0.03343 0.0408,-0.01652 0.0208,-0.02156 0.008,-0.03782 0.006,-0.04041 0.0212,-0.03288 0.0276,-0.02818 0.0497,-0.01683 0.0567,-0.03269 0.0497,-0.03131 0.0798,-0.04639 0.087,-0.03313 0.0978,-0.0572 0.0498,-0.03509 0.0656,-0.0766 0.0605,-0.05278 0.0835,-0.05786 0.0881,-0.06572 0.10815,-0.06081 0.0495,-0.0247 0.0398,-0.02357 0.0531,-0.01586 0.0327,-0.0043 0.0338,0.0028 0.0304,-0.0095 0.0271,-0.0062 0.0526,0.006 0.0436,0.0036 0.0351,-0.007 0.0526,-0.01945 0.0565,-0.03313 0.0627,-0.02922 0.0743,-0.02287 0.0727,-0.02961 0.0773,-0.02228 0.10912,-0.03994 0.15075,-0.05422 0.0606,-0.03061 0.0369,-0.01669 0.0492,-0.01576 0.0229,-0.01723 0.0296,-0.01271 0.0311,-0.01994 0.0501,-0.02515 0.0289,-0.02073 0.0463,-0.02336 0.0396,-0.01508 0.0244,-0.02334 0.045,-0.0056 0.0328,-0.01627 0.051,-0.03947 0.0373,-0.03088 0.0396,-0.02436 0.0506,-0.02286 0.0225,-0.02643 0.039,0.05006 0.35343,-0.223953 -0.0474,-0.05516 -0.0263,-0.03517 0.0153,-0.01587 0.004,-0.01787 0.006,-0.02348 -0.005,-0.02733 -0.007,-0.02363 0.003,-0.02942 0.0207,-0.0071 0.0216,-0.0023 0.0217,-0.02229 0.0218,-0.02243 0.0202,-0.02779 0.0153,-0.0034 0.0101,-0.0073 0.005,-0.01026 -0.002,-0.01498 0.0294,-0.03306 0.0297,-0.0311 0.0222,-0.01677 0.0389,-0.01732 0.0344,-0.0056 0.0257,-0.0017 0.0356,-0.01359 0.0452,-0.01319 0.033,-0.0121 0.0158,-0.02487 0.0111,-0.03199 0.009,-0.02496 0.0226,-0.02602 0.001,-0.03218 0.001,-0.03084 0.0202,-0.0251 0.0141,-0.02619 0.003,-0.03094 0.005,-0.04213 -0.0143,-0.03239 -0.007,-0.02451 -0.011,-0.0243 -0.024,-0.02422 -0.0301,-0.01361 -0.0383,-0.0202 -0.0259,-0.03188 -0.0269,-0.03128 -0.0425,-0.02887 -0.0465,-0.03455 -0.0385,-0.02352 -0.0903,-0.05834 -0.0531,-0.05274 -0.0267,-0.04918 -0.009,-0.05348 -0.004,-0.04743 0.009,-0.03916 0.0104,-0.02921 0.0187,-0.02429 0.021,-0.02722 0.0179,-0.02234 0.0341,-0.0048 0.047,0.01408 0.0341,0.01851 0.0367,0.01309 0.2763,0.07712 0.0131,-0.04469 0.12979,0.03596 0.15025,0.04249 0.2037,-0.09109 0.0922,0.03065 0.0823,0.02436 0.16325,0.04746 0.14363,0.04007 0.0572,0.01722 0.0173,0.0017 0.22471,0.0034 0.13027,0.006 0.02,-0.0032 0.0101,-0.0081 0.0163,-0.01586 0.25062,-0.195097 0.3644,-0.27113 0.30793,-0.23094 1.00956,-0.763402 -0.1207,-0.153115 0.0835,-0.06041 0.13214,-0.09596 0.14221,-0.102248 0.0769,-0.05699 0.22332,-0.159633 0.10403,-0.07102 0.15349,-0.103917 0.10705,-0.0783 0.20384,-0.151553 -0.0339,-0.04607 0.0193,-0.02297 0.0312,-0.01055 0.0346,-0.01911 0.0375,-0.02547 0.0318,-0.02444 0.0298,-0.02757 0.0279,-0.02528 0.0243,-0.01342 0.0115,-0.0174 0.004,-0.03848 0.0147,-0.01959 0.0269,-0.04135 0.0137,-0.02007 0.0141,-0.01821 0.0352,-0.01101 0.0314,-0.01513 0.042,-0.02579 0.0282,-0.01073 0.0302,-0.01356 0.0222,-0.0087 0.018,-0.01965 0.026,-0.02865 0.0195,-0.02362 0.0221,-0.01165 0.0233,-0.0124 0.0145,-0.01672 0.0122,-0.01879 0.011,-0.02113 0.0109,-0.02495 0.0667,-0.05197 0.0252,-0.01936 0.0115,-0.0174 0.0103,-0.01715 0.0132,-0.0043 0.0159,0.01094 0.0194,-0.01159 0.0127,-0.01776 0.002,-0.02195 3.1e-4,-0.01743 0.0176,-0.0164 0.024,-0.03065 0.0157,-0.03017 0.0271,-0.03652 0.0143,-0.03608 0.0121,-0.029 0.007,-0.03549 0.004,-0.02352 0.0179,-0.01359 0.0309,-0.0085 0.0215,-0.0059 0.0224,-0.0106 0.0224,0.01039 0.0238,-9.64e-4 0.0208,0.0097 0.0243,-0.01741 0.0215,-0.02842 0.0179,-0.02234 0.0216,-0.01037 0.0276,-0.02656 0.0315,-0.02581 0.0177,-0.02716 0.0242,-0.02794 0.0311,-0.0391 0.0268,-0.04108 0.0209,-0.02434 -0.038,-0.05698 -0.0268,-0.05894 -0.0512,-0.06906 -0.0603,-0.06496 -0.022,-0.05036 -0.0366,-0.03853 -0.0229,-0.02618 -0.004,-0.02954 -0.002,-0.01943 0.0155,-0.02673 0.0103,-0.02399 0.009,-0.02344 0.03,-0.0041 0.0323,0.01233 0.028,7.91e-4 0.0165,-0.01354 0.0173,-0.01306 0.0147,0.0039 0.0123,0.01048 0.0901,0.107436 0.0503,0.05038 0.0225,0.03544 0.018,0.0276 0.0263,0.03005 0.0269,0.0058 0.0209,0.01193 0.0235,-0.02524 0.0176,-0.0294 0.0122,-0.03162 0.0194,-0.01796 0.0135,-0.01961 0.0168,-0.01446 0.006,-0.01784 0.0195,-0.02864 0.0237,-0.02817 0.0135,-0.02453 0.0274,-0.0234 0.007,-0.02247 0.004,-0.02484 0.005,-0.02109 0.0217,-0.0417 0.0169,-0.01984 0.0256,-0.03064 0.008,-0.02118 0.0114,-0.01964 0.016,-0.01781 0.0108,-0.03144 0.0103,-0.01919 0.018,-0.009 0.0126,-0.01738 2e-4,-0.01875 0.019,-0.01962 0.008,-0.02504 0.004,-0.02138 0.0124,-0.01702 0.0192,-0.0167 0.0105,-0.02293 0.0107,-0.02066 0.0182,-0.0011 0.0193,-0.03077 0.007,-0.03149 0.009,-0.03852 0.007,-0.02898 0.0217,-0.0249 0.0109,-0.02892 0.004,-0.02325 0.0124,-0.01962 0.0276,-0.03127 0.0192,-0.02279 0.028,-0.02628 0.01,-0.0361 0.0167,-0.04548 0.01,-0.04881 6.9e-4,-0.03316 0.0221,-0.048 0.0171,-0.02291 0.021,-0.02731 0.0269,-0.04395 0.0137,-0.02508 0.0158,-0.01967 0.0169,-0.02773 0.0285,-0.05052 0.0204,-0.01987 0.0276,-0.01473 0.0134,-0.01914 0.004,-0.02797 -4.6e-4,-0.03821 -0.005,-0.03683 0.003,-0.03104 0.005,-0.01481 0.0148,-0.0098 0.006,-0.01586 0.016,-0.0083 0.023,-0.0029 0.0218,-0.01144 0.006,-0.01817 0.0104,-0.01983 0.0193,-0.0064 0.0231,-0.0023 0.0178,-0.01511 0.0103,-0.02234 0.009,-0.02041 0.0134,-0.01683 0.0249,-0.0039 0.0269,-0.0032 0.0231,-0.01347 0.0149,-0.01801 0.003,-0.02728 0.003,-0.0254 0.0219,-0.01334 0.0186,-0.01862 0.0234,-0.01757 0.022,-0.01285 0.0291,-0.01335 0.0283,-0.02302 0.003,-0.02978 0.005,-0.03636 0.0109,-0.01835 0.0214,-0.0057 0.007,-0.02302 0.005,-0.03645 0.0208,-0.06074 0.0237,-0.08317 0.0219,-0.06046 0.0126,-0.0459 0.0112,-0.05589 0.0222,-0.07989 0.005,-0.03736 -0.004,-0.03398 0.0106,-0.04545 0.0959,-0.24171 -0.052,-0.492182 -0.0558,-0.529488 -0.31742,-0.895786 -0.0197,-0.04097 -0.023,-0.02989 -0.65363,-0.782435 -0.028,-0.03352 -0.029,-0.02889 -0.61894,-0.540223 -0.0445,-0.03573 -0.75186,-0.616035 -0.37695,-0.299836 -0.0258,-0.01719 -0.042,-0.01753 -0.70169,-0.29639 -0.0402,-0.0091 -0.0337,-0.0016 -0.74651,0.07601 -0.41962,0.0436 -0.12563,0.013 -0.0392,0.0078 -0.0368,0.0046 -0.0258,0.01268 -0.0203,0.01977 -0.0338,0.01261 -0.0229,-7.94e-4 -0.0187,-0.0067 -0.009,-0.01107 -0.0833,0.0081 -0.12869,0.01423 -0.0249,-0.0099 -0.0325,0.0083 -0.0236,0.0227 -0.0152,0.02089 -0.0315,0.01814 -0.025,-6.05e-4 -0.025,-0.0072 -0.0275,0.0074 -0.076,0.02846 -0.0725,0.02966 -0.0291,0.02268 -0.032,0.01257 -0.11955,0.04656 -0.0288,0.0021 -0.0286,-7.68e-4 -0.0248,0.01718 -0.0197,0.02053 -0.0178,0.03515 -0.006,0.03707 0.0102,0.02902 0.0139,0.03259 -0.0216,-0.0013 -0.0374,0.01059 -0.0282,0.0171 -0.0348,0.02259 -0.0394,0.03314 -0.0455,-0.01024 -0.018,-0.03311 -0.0856,-0.13511 -0.0341,-0.06274 -0.025,-0.08198 -0.0295,-0.134034 -0.0183,-0.0877 -0.0119,-0.04808 -0.005,-0.01893 -0.007,-0.02962 0.005,-0.02865 0.0113,-0.01425 0.0117,-0.01787 0.009,-0.02663 0.0229,-0.05554 0.019,-0.05111 0.0226,-0.056 0.0247,-0.05197 0.0239,-0.04195 0.0371,-0.06135 0.0398,-0.06353 0.024,-0.04222 0.03,-0.03885 0.0439,-0.04587 0.0292,-0.02537 0.0614,-0.06361 0.0488,-0.03227 0.0285,-0.01429 0.0363,-0.01974 0.021,-0.01879 0.0134,-0.02193 0.0238,-0.01384 0.021,-10e-4 0.0234,0.0064 0.0287,-0.0092 0.0212,-0.01602 0.0235,-0.01605 0.0168,-0.01946 0.0134,-0.01914 0.0291,-0.007 0.0232,-0.02173 0.0137,-0.03038 -0.008,-0.04421 -0.0171,-0.0299 -0.0279,-0.05488 -0.0433,-0.06599 -0.0583,-0.07429 -0.1062,-0.12209 -0.0878,-0.09323 -0.0991,-0.118363 -0.10116,-0.118076 -0.13058,-0.15504 -0.0329,-0.04493 -0.002,-0.003 -0.0214,-0.03561 -0.0146,-0.0326 -0.0193,-0.03392 -0.022,-0.02351 -0.0602,-0.07331 -0.062,-0.07627 -0.13497,-0.186176 -0.0444,-0.05349 -0.052,-0.04376 -0.0488,-0.05174 -0.031,-0.04219 -0.0275,-0.03141 -0.0236,-0.01953 -0.0193,-0.0145 -0.0197,-0.01032 -0.0212,0.0049 -0.0174,0.01199 -0.0206,0.0078 -0.0276,0.0057 -0.0224,0.01089 -0.0198,0.01485 -0.0198,0.01494 -0.0284,0.0051 -0.0156,0.01921 -0.0233,0.0185 -0.028,0.01525 -0.0348,0.02684 -0.0297,0.0221 -0.0346,0.02876 -0.0312,0.0244 -0.0182,0.02531 -0.0153,0.02108 -0.007,0.03212 0.005,0.02988 0.0108,0.04502 0.005,0.05402 0.006,0.06621 0.0104,0.08562 0.0103,0.08355 0.007,0.104169 0.005,0.08573 0.007,0.05214 0.0114,0.08541 0.004,0.03402 0.002,0.0268 -0.0128,0.02036 -0.008,0.03174 0.006,0.0357 0.0138,0.02876 0.0157,0.05166 -0.004,0.0384 -0.03,0.0027 -0.005,0.07242 0.005,0.067 -0.15098,0.01531 6.4e-4,0.0089 -0.0459,0.0049 -0.002,-0.02339 -0.021,0.0024 0.006,0.07086 0.0203,-0.0024 -0.002,-0.02346 0.0456,-0.0051 0.002,0.01415 0.14983,-0.01376 0.014,0.0659 0.0241,0.0703 0.0379,-0.0053 0.0271,0.07793 0.12526,0.22651 -0.0196,0.01102 0.0114,0.02281 0.0211,-0.01074 0.025,0.04514 -0.0188,0.01128 0.0125,0.02414 0.0201,-0.01128 0.0743,0.133758 0.016,-0.0072 -0.001,0.01026 -0.0109,0.01575 -0.003,0.02826 -0.01,0.04138 -0.004,0.03272 -0.013,0.04441 -7.1e-4,0.0325 3.8e-4,0.03015 -0.005,0.02618 -0.008,0.02495 -0.0279,0.0058 -0.0314,0.02249 -0.0169,0.02773 -0.0201,0.03029 -0.0144,0.03975 0.005,0.02377 -0.005,0.02109 -0.006,0.02954 -0.0174,0.02912 -0.0308,0.02608 -0.0492,0.03751 -0.0642,0.04883 -0.0684,0.03075 -0.0562,0.02648 -0.0765,0.02338 -0.0675,0.02047 -0.0619,0.01621 -0.0475,0.01236 -0.0615,0.0086 -0.0715,-0.01247 -0.0656,-0.02181 -0.0368,-0.01847 -0.017,-0.0092 -0.0186,0.0054 -0.0342,-0.01469 -0.0732,-0.04343 -0.0847,-0.04593 -0.12364,-0.0937 -0.11404,-0.104341 -0.0935,-0.10059 -0.0587,-0.0761 -0.0315,-0.0583 -0.0187,-0.05033 -0.0147,-0.07051 -0.0327,-0.06803 -0.0234,-0.05286 -0.0129,-0.03241 -0.018,-0.05791 -0.0162,-0.03946 -0.027,-0.03274 -0.0273,-0.06254 -0.0144,-0.03597 -0.019,-0.05648 -0.0357,-0.06786 -0.0215,-0.06142 -0.0203,-0.08208 -0.007,-0.04673 -0.003,-0.0626 -0.001,-0.04705 0.004,-0.0463 0.004,-0.03476 -0.0121,-0.02945 -0.021,-0.141127 -0.005,-0.145982 -0.0162,-0.18123 0.007,-0.06094 0.006,-0.06022 0.012,-0.06461 0.0245,-0.05881 0.016,-0.05672 0.0179,-0.09371 0.0278,-0.103924 0.0259,-0.120897 0.0121,-0.03429 0.0151,-0.04429 0.0118,-0.02585 0.0191,-0.04331 0.0189,-0.03523 0.0151,-0.0259 0.0206,-0.03679 0.0134,-0.02972 0.0118,-0.03903 0.001,-0.03405 0.007,-0.03258 0.0226,-0.04652 0.0232,-0.0224 0.0171,-0.0256 0.004,-0.0278 0.008,-0.01977 0.0165,-0.003 0.0161,0.01836 0.0221,0.0086 0.0224,-0.0065 0.0173,-0.0119 0.007,-0.02211 -0.01,-0.02231 -0.006,-0.02172 0.0134,-0.01413 0.0221,-0.01497 0.0169,-0.02245 0.0259,-0.02326 0.0128,-0.01776 0.007,-0.01819 0.0162,-0.02365 0.0236,-0.02018 0.017,-0.02263 0.0127,-0.02806 0.0141,-0.0183 0.0271,-0.01953 0.0243,-0.01768 0.0242,-0.01669 0.0253,-0.03147 0.0222,-0.03797 0.0199,-0.02974 0.009,-0.03024 0.008,-0.01699 0.0181,-0.01159 0.0204,-0.02566 0.0123,-0.02759 -4.5e-4,-0.0305 0.0182,-0.01729 0.0261,-0.01991 0.0123,-0.03495 0.008,-0.03676 0.004,-0.03467 0.002,-0.03247 0.0112,-0.03477 0.0197,-0.03179 0.0231,-0.02777 0.017,-0.01733 0.005,-0.0242 0.0155,-0.0244 0.0152,-0.02897 0.0149,-0.02535 0.0217,-0.0288 0.018,-0.03292 0.0186,-0.05529 0.0125,-0.02483 0.013,-0.03263 0.0142,-0.02888 0.0141,-0.02619 0.0155,-0.02172 0.009,-0.03024 -6.2e-4,-0.02712 -0.003,-0.03046 -0.002,-0.02183 0.0232,-0.0221 0.0278,-0.0198 0.0182,-0.03589 0.001,-0.03941 0.003,-0.0395 -0.006,-0.02396 -0.003,-0.01803 0.0209,-0.01537 0.007,-0.01561 0.007,-0.01897 -0.003,-0.02208 -0.005,-0.02846 -0.007,-0.02686 -7e-4,-0.02137 -0.005,-0.03767 -0.0121,-0.0325 -0.0187,0.0046 -0.017,0.0083 -0.0151,2.17e-4 -0.003,-0.01534 0.009,-0.01625 0.006,-0.01802 0.0105,-0.01482 -0.003,-0.01785 -0.0117,-0.01662 -0.0164,-0.007 -0.0152,-0.002 -0.0122,-0.0045 -0.0255,-0.03927 -0.0482,-0.09039 -0.0718,-0.118354 -0.0399,-0.06452 -0.1131,-0.203496 -0.0107,-0.01309 -0.0143,-0.01351 -0.0276,-0.02679 -0.0522,-0.0406 -0.0587,-0.04221 -0.0995,-0.05945 -0.10662,-0.05504 -0.10553,-0.05696 -0.12323,-0.07017 -0.14963,-0.0902 -0.0758,-0.05217 -0.101,-0.06364 -0.07,-0.03765 -0.0671,-0.04031 -0.0627,-0.04973 -0.0328,-0.03459 -0.0355,-0.02232 -0.0241,-0.0067 -0.0269,0.0099 -0.0279,0.01215 -0.0258,-0.01826 -0.0187,-0.01862 -0.0256,-0.01495 -0.0319,0.0025 -0.0314,0.0096 -0.0237,-0.0032 -0.0424,-0.01973 -0.0245,-0.01342 -0.0309,0.0034 -0.0283,0.01598 -0.0316,0.02421 -0.0304,0.04618 -0.0525,0.02675 -0.0479,0.01725 -0.0538,0.0053 -0.0791,0.0046 -0.14546,0.006 -0.12163,0.0016 -0.0946,-0.01196 -0.0465,-0.0076 -0.0539,-0.0148 -0.087,-0.03393 -0.0704,-0.04039 -0.0669,-0.04876 -0.0313,-0.02692 -0.0339,-0.02922 -0.0415,-0.04177 -0.0443,-0.05116 -0.0244,-0.03513 -0.0197,-0.03277 0.003,-0.041 7.2e-4,-0.03237 0.003,-0.032 0.0135,-0.04022 0.0195,-0.03383 0.033,-0.02574 0.0393,-0.03299 0.0393,-0.0078 0.0578,-0.02117 0.0543,-0.03008 0.0116,-0.02596 -0.002,-0.02889 -0.013,-0.02612 0.0248,-0.01494 -0.0649,-0.103276 -0.0327,0.01849 -0.0291,-0.02596 -0.0366,-0.01194 -0.0355,0.0035 -0.0817,0.03442 -0.0725,0.04669 -0.0626,0.03965 -0.40074,0.220178 -0.12398,0.07182 -0.12369,0.07168 -0.11776,0.06495 -0.0812,0.04008 -0.0905,0.02676 -0.0996,0.01367 -0.0932,-0.0074 -0.0875,-0.01485 -0.1847,-0.02355 -0.10254,0.0087 -0.0745,0.0318 -0.0801,0.03799 -0.0835,0.03962 -0.0778,0.04029 -0.0711,0.04381 -0.0925,0.05657 -0.0836,0.04847 -0.19817,0.08528 -0.16223,0.08685 -0.1413,0.04533 -0.077,0.04063 -0.0865,0.05786 -0.0796,0.05503 -0.0421,0.0314 -0.0387,0.03205 -0.0445,0.03144 -0.0365,0.02944 -0.0485,0.04517 -0.0728,0.07016 -0.19542,0.189724 -0.4286,0.396756 -0.0518,0.03266 -0.0194,0.02316 -0.0223,0.01261 -0.0213,0.01823 -0.037,0.03812 -0.0453,0.04844 -0.0389,0.03925 -0.0402,0.02916 -0.0191,0.01972 -0.0423,0.02504 -0.0391,0.02168 -0.0779,0.05061 -0.057,0.04165 -0.0684,0.05402 -0.10309,0.08255 -0.0683,0.06081 -0.0594,0.05702 -0.0742,0.06384 -0.0616,0.06295 -0.0384,0.04262 -0.0346,0.02994 -0.0244,0.02302 -0.0239,0.01763 -0.017,0.0077 -0.0372,0.03244 -0.0509,0.04547 -0.0451,0.04471 -0.009,0.01261 -0.0167,0.01696 -0.0497,0.04085 -0.0369,0.04394 -0.0359,0.02366 -0.0232,0.02998 -0.0319,0.02099 -0.0323,0.02928 -0.0507,0.04546 -0.039,0.03588 -0.0412,0.04479 -0.0342,0.03249 -0.0494,0.06074 -0.0366,0.04056 -0.0329,0.03811 -0.0351,0.03543 -0.0441,0.03911 -0.0639,0.04258 -0.0334,0.02589 -0.0287,0.02239 -0.0432,0.01552 -0.0501,0.02987 -0.029,0.03038 -0.0382,0.04027 -0.0431,0.04353 -0.0398,0.02886 -0.0308,0.04647 -0.0307,0.03135 -0.0385,0.0328 -0.0363,0.03431 -0.0264,0.02724 -0.0451,0.04525 -0.0914,0.08145 -0.0783,0.05534 -0.049,0.05287 -0.0367,0.052 -0.0339,0.04894 -0.0414,0.06 -0.0385,0.05315 -0.0385,0.04549 -0.047,0.04519 -0.20128,0.198264 -0.046,0.03149 -0.048,0.03132 -0.0377,0.03728 -0.0478,0.03342 -0.0517,0.05351 -0.0948,0.07241 -0.11749,0.106826 -0.0812,0.09975 -0.0729,0.107502 -0.0878,0.126585 -0.0625,0.09667 -0.11171,0.178518 -0.14066,0.194311 -0.0642,0.10125 -0.0817,0.116507 -0.0716,0.124202 -0.0455,0.102106 -0.0167,0.08067 0.007,0.06509 0.0287,0.06289 0.0546,0.13053 -0.013,0.01831 -0.046,0.07409 -0.0193,0.03077 -0.0889,0.09591 -0.0216,0.01475 -0.0188,-0.01109 -0.0119,0.01294 -0.02,0.0063 -0.0643,0.05349 -0.1748,0.138635 -0.0395,-0.02948 -0.052,-0.01723 -0.0425,0.0015 -0.052,0.02426 -0.0425,0.03295 -0.0402,0.0371 -0.0397,0.04657 -0.0256,0.03849 -0.0142,0.04988 0.0286,0.03425 0.0478,-0.0017 0.0359,-0.0042 0.0488,0.01803 0.0267,0.01973 0.0157,0.03 0.005,0.04272 -0.003,0.02701 -0.0166,0.0191 -0.0218,0.05265 -0.0203,0.05024 -0.008,0.03918 0.008,0.03902 0.01,0.03354 -0.0324,0.03171 -0.006,0.01427 -0.0193,-0.01665 -0.0212,0.02499 -0.0224,0.02655 0.0231,0.01931 -0.0224,0.01723 -0.0137,0.01998 -0.008,0.02719 6.5e-4,0.02443 0.0132,0.03027 -0.0321,0.0082 -0.0209,0.03465 -7.6e-4,0.03129 -0.008,0.03379 -0.0249,0.02099 -0.0368,0.03788 -0.0432,0.0568 -0.0465,0.06623 -0.0365,0.06036 -0.0234,0.06415 -0.0121,0.05268 0.006,0.03244 -0.013,0.01831 -0.0162,0.01808 -0.0135,0.01942 -0.0197,0.04576 0.005,0.02516 -0.12364,-0.126727 -0.0583,0.05967 0.11824,0.123727 -0.02,0.02038 -0.0187,0.01303 -0.002,0.03069 0.004,0.02567 -0.0472,0.08211 -0.0535,0.07349 -0.0394,0.05698 -0.0537,0.04558 -0.0449,0.03433 -0.0372,0.01209 -0.0879,0.09142 -0.0402,-0.03939 0.0258,-0.02656 -0.14377,-0.13378 -0.10373,0.110974 0.0127,0.01175 -0.0777,0.08234 0.0446,0.04177 0.0805,-0.08452 0.10549,0.101129 -0.1542,0.167732 -0.2755,0.256683 -0.46445,0.392421 -0.24572,0.236311 -0.24952,0.223094 -0.39643,0.328824 -0.1709,0.121895 -0.29507,0.242352 -0.17314,0.115267 -0.096,0.06789 -0.0791,0.130995 -0.2577,0.231463 -0.33657,0.273616 -0.38117,0.319371 -0.28196,0.229152 -0.23715,0.16164 -0.15823,0.148729 -0.0922,0.07022 -0.16883,0.09546 -0.24048,0.149399 -0.18157,0.142671 -0.17134,0.150529 -0.24168,0.231501 -0.317,0.306547 -0.11999,0.122561 -0.24573,0.209913 -0.4997,0.389506 -0.29048,0.261687 -0.18955,0.168047 -0.15429,0.143634 -0.0957,0.0874 -0.0555,0.02787 -0.0829,0.02711 -0.15222,0.06293 -0.13416,0.07131 -0.11863,0.07569 -0.16243,0.134562 -0.151,0.109061 -0.0618,0.0044 -0.0577,0.02577 -0.0729,0.05769 -0.10218,0.07308 -0.0479,0.07736 -0.0305,0.05005 -0.0631,0.01454 -0.045,0.02345 -0.0282,0.05239 -0.0561,0.05382 -0.0957,0.07579 -0.10317,0.09244 -0.18829,0.131727 -0.0895,0.07856 -0.14269,0.121422 -0.0496,0.05748 -0.0437,0.03739 -0.0452,0.0076 -0.0377,0.02948 -0.0173,0.05466 -0.008,0.04186 -0.0417,0.03115 -0.0287,0.02414 -0.0233,0.02236 -0.018,0.03032 -0.0243,0.01135 -0.0299,0.0036 -0.0166,0.0067 -0.013,0.01831 -0.0455,0.03302 -0.0379,0.01214 -0.0263,0.0057 -0.0229,0.02296 -0.0284,0.03401 -0.0276,0.01912 -0.0585,0.0209 -0.0283,0.02163 -0.0377,0.05355 -0.0406,0.0508 -0.11949,0.08347 -0.0958,0.07819 -0.21692,0.123209 -0.0271,0.0061 -0.0401,0.01924 -0.0298,0.03559 -0.097,0.05268 -0.0398,0.03129 -0.0705,0.04677 -0.056,0.03713 -0.027,0.02226 -0.0421,0.02575 -0.0294,0.03118 -0.0191,0.02492 -0.033,0.0025 -0.0365,0.009 -0.0468,0.02074 -0.0321,0.02872 -0.0496,0.05203 -0.047,0.04192 -0.0391,0.05011 -0.0451,0.04515 -0.0385,0.03621 -0.0268,0.03865 -0.0145,0.0299 -0.0235,0.03063 -0.0231,0.04019 -0.0274,0.01718 -0.0161,0.0205 -0.0157,0.01698 -0.0132,0.01098 -0.0125,0.01462 -0.0191,0.0029 -0.0142,0.01077 -0.008,0.02182 -0.003,0.0177 -0.0157,0.01079 -0.0261,0.01582 -0.0354,0.02917 -0.0534,0.03713 -0.0301,0.02131 -0.0174,0.02393 -0.009,0.02022 -0.0649,0.05817 -0.1016,0.07872 -0.11217,0.09038 -0.0369,0.03058 -0.035,0.0421 -0.0198,0.02956 -0.0315,0.03021 -0.0464,0.02341 -0.0155,0.0022 -0.012,0.01071 -0.003,0.0153 -0.0129,0.02064 -0.0261,0.01458 -0.0236,-0.0022 -0.0159,0.01152 -0.004,0.02671 -0.0178,0.01502 -0.0276,0.01451 -0.0158,0.01995 7e-5,0.02708 -0.008,0.04086 -0.0151,0.01559 -0.0201,0.01277 -0.022,0.0068 -0.0127,0.02277 -1.4e-4,0.02171 -0.0138,0.01505 -0.0272,-0.0026 -0.0179,0.0048 -0.0219,0.02952 -0.0114,0.03524 -0.0223,0.01695 -0.0386,0.01932 -0.0307,0.0162 -0.17086,0.163243 -0.201,0.182671 -0.18964,0.17084 -0.063,0.04359 -0.0482,0.03447 -0.0445,0.05398 -0.0435,0.0744 -0.0447,0.05938 -0.23193,0.211333 -0.25219,0.220519 -0.17815,0.145994 -0.0871,0.04628 -0.0788,0.04743 -0.14568,0.109824 -0.35201,0.206381 -0.31967,0.193041 -0.10488,0.06467 -0.0478,0.0067 -0.0189,0.02223 -0.0986,0.05426 -0.0783,0.03401 -0.0884,0.0376 -0.0727,0.02289 -0.0896,0.03202 -0.0521,0.02256 -0.0398,0.02819 -0.0467,0.03065 -0.0619,0.0029 -0.0608,0.0039 -0.0644,6.91e-4 -0.026,-0.01132 -0.0192,-0.01338 -0.0334,0.0011 -0.0369,0.0086 -0.0394,-0.0035 -0.0435,0.0052 -0.0474,0.0091 -0.0381,0.005 -0.0469,0.02255 -0.0317,0.04209 -0.0169,0.03562 -0.0351,0.02095 -0.0212,-1.56e-4 -0.015,-0.01594 -0.035,-0.02999 -0.0249,-0.02007 -0.0288,-0.0098 -0.034,0.0029 -0.0266,0.01668 -0.0209,0.0234 -0.0159,0.01494 0.005,0.02176 -0.0167,0.0192 -0.0189,0.0049 -0.0145,-0.0064 -0.0321,0.01433 -0.0263,0.01347 -0.0263,0.01207 -0.0162,-0.01758 -0.0111,-0.02742 -0.005,-0.02842 -0.008,-0.021 -0.0121,-0.0046 -0.0186,0.0095 -3.3e-4,-0.01226 -0.0145,-0.0016 -0.0232,0.01343 -0.0292,0.0024 0.0177,-0.01614 0.0179,-0.01153 0.0143,-0.01644 0.007,-0.01951 -0.0157,-0.01189 0.0162,-0.02068 -0.009,-0.01119 -0.0233,0.0022 -0.025,0.0026 -0.019,-0.0073 -0.0282,0.0068 -0.0221,0.01048 -0.0173,0.0015 -0.0174,-0.01047 -0.009,-0.01234 -0.0148,0.0097 -0.024,0.02473 -0.0182,0.02559 -0.0256,0.01202 -0.0193,0.01853 -0.0272,0.0081 -0.0421,7.06e-4 -0.0375,0.0034 -0.0465,0.0092 -0.0465,0.0063 -0.0279,-0.0029 -0.0313,0.0019 -0.0348,0.01711 -0.0383,0.0223 -0.0318,0.01462 -0.026,0.01349 -0.0251,0.0172 -0.0268,0.0033 -0.0231,-0.0042 -0.0198,-0.01578 -0.0205,-0.0096 -0.0246,-0.0015 -0.0183,0.0032 -0.0168,0.0052 -0.0119,0.01294 0.002,0.02185 -0.006,0.01292 0.009,0.01847 -0.009,0.01269 -0.0171,0.0082 -0.0287,-0.0011 -0.0273,0.0012 -0.0325,0.0027 -0.0258,0.0046 -0.0184,0.01646 -0.017,0.01115 -0.007,-0.02246 -0.0186,-0.0142 -0.0218,0.003 -0.009,0.01151 -0.001,0.01884 -0.006,0.01618 -0.0116,0.0123 -0.0199,-0.0089 -0.0189,0.0054 -0.0964,0.08528 -0.0307,0.0192 -0.0329,0.0053 -0.0374,0.01577 -0.0224,0.02348 -0.0206,0.02328 -0.025,0.0048 -0.0264,-0.01633 -0.0209,-0.02359 -0.0224,-0.02442 -0.0224,-0.01578 -0.023,-0.0094 -0.0138,-0.01548 -0.004,-0.02824 -0.0173,-0.01039 -0.0298,0.0055 -0.029,0.01447 -0.0161,-0.01935 -0.0263,-0.02848 -0.0289,-0.0088 -0.0357,0.0017 -0.0301,0.01881 -0.0332,0.03942 -0.0334,0.02629 -0.0213,0.01984 -0.0274,0.02484 -0.012,0.02102 -0.003,0.02532 -0.001,0.02366 -0.001,0.02953 -0.0192,0.02807 -0.0206,0.0163 -0.0256,0.0036 -0.0332,0.01665 -0.0315,0.02371 -0.0227,-0.0018 -0.0192,-0.0155 -0.007,-0.0283 0.0225,-0.03342 0.0171,-0.01497 0.0267,-0.0021 0.001,-0.01474 -0.0107,-0.01607 -0.0118,-0.01948 -0.0142,-0.02428 -0.0237,-0.03603 -0.0263,-0.01848 -0.0371,-0.0045 -0.0445,0.01345 -0.0428,0.01714 -0.0344,0.02566 -0.05,0.03761 -0.0579,0.04022 -0.0537,0.03608 -0.0519,0.02387 -0.0459,0.01431 -0.0328,0.0285 -0.3267,0.319113 -0.0153,0.0023 -0.0828,0.08172 0.009,0.02361 -0.0183,0.04635 0.006,0.05599 0.0485,0.0367 -0.0297,0.01038 -0.0501,-0.0046 -0.0144,0.02146 -0.0108,0.02417 0.002,0.02567 0.008,0.03661 -0.006,0.03509 -0.0172,0.01345 -0.008,0.02896 0.002,0.02036 -0.0327,0.08678 -0.0387,0.134943 -0.0191,0.158562 -0.0412,0.268444 0.0462,0.07654 -0.0348,0.207471 -0.0258,0.107953 -0.0288,0.140814 -0.0603,0.09429 -0.0512,0.09741 -0.10312,0.256457 -0.15829,0.473851 -0.0513,0.09764 -0.0869,0.120348 -0.054,0.06353 -0.0543,0.117745 -0.0309,0.131947 -0.0447,0.07731 -0.0427,0.0352 -0.0251,0.05799 -0.041,0.05554 -0.0498,0.04181 -0.0452,0.08237 -0.0114,0.01945 -0.0336,0.06262 -0.003,0.0064 -0.0288,0.07215 -0.008,0.04675 -0.0318,0.05067 0.002,0.06294 8.5e-4,0.0058 0.008,0.07331 -0.008,0.115823 0.003,0.162632 0.0227,0.1046 0.0403,0.05561 -7e-4,0.05771 0.003,0.03874 -0.002,0.02159 -0.008,0.08512 -0.001,0.02115 -0.01,0.06586 -0.002,0.01836 -0.006,0.07832 0.0217,0.05855 -0.0202,0.05638 -0.0321,0.03526 -0.0418,0.02164 -0.0346,0.02509 -0.0428,0.01885 -0.041,-0.0021 -0.0414,-0.0017 -0.0316,0.03021 -0.007,0.03212 0.01,0.03836 0.0151,0.03485 -0.007,0.03751 -7e-5,0.0054 0.004,0.03427 -0.0128,0.0305 0.0163,0.03407 0.0185,0.0308 0.0188,0.0344 0.0118,0.03768 -0.001,0.04656 -0.005,0.04325 -0.18721,0.72756 -0.25533,0.808895 -0.0665,0.142014 -0.0382,0.04537 -0.0197,0.09443 -0.0267,0.0435 -0.0331,0.03969 -0.0141,0.04198 -2.3e-4,0.06973 -0.0254,0.07434 -0.0596,0.03026 -0.0552,0.04425 -0.056,0.03924 -0.0546,0.04995 -0.0507,0.0555 -0.0483,0.06724 -0.19992,0.19121 -1.40567,1.253846 -0.27265,0.26353 -0.18312,0.153204 -0.27304,0.300583 -0.26506,0.298478 -0.37257,0.398369 -0.21576,0.228186 -0.15228,0.146084 -0.13568,0.12879 -0.17184,0.193026 -0.20758,0.257287 -0.13682,0.177182 -0.12772,0.148509 -0.18203,0.206883 -0.12593,0.150418 -0.16786,0.225427 -0.0923,0.127645 -0.048,0.05285 -0.0472,0.07094 -0.0383,0.03978 -0.0436,0.05801 -0.0496,0.08294 -0.0476,0.04142 -0.0274,0.03324 -0.002,0.034 -0.0603,0.07223 -0.0676,0.09512 -0.0629,0.08236 -0.104,0.129654 -0.0566,0.06681 -0.059,0.0708 -0.0649,0.09376 -0.0786,0.09725 -0.0928,0.101866 -0.0731,0.116794 -0.0403,0.08158 0.003,0.04932 0.0561,0.03876 0.0971,0.05269 0.007,0.0084 -0.0428,0.06834 -0.10398,-0.02699 -0.0592,0.0058 -0.0397,0.01536 -0.0493,0.04483 -0.0325,0.03269 -0.10529,0.178997 -0.0464,0.07255 -0.0426,0.08713 -0.04,0.03444 -0.058,0.06418 -0.025,0.04714 -0.0498,0.125256 -0.07,0.12089 -0.0849,0.142613 -0.13697,0.205519 -0.0525,0.07154 -0.0726,0.0722 -0.13092,0.183615 -0.035,0.03465 -0.13934,0.210994 -0.0716,0.09566 -0.0475,0.05823 -0.0504,0.06377 -0.0437,0.0542 -0.0372,0.05795 -0.0427,0.07246 -0.0327,0.06319 -0.0489,0.05671 -0.0771,0.0776 -0.0768,0.04071 -0.0381,0.03798 -0.0267,0.03323 -0.0361,0.02501 -0.0466,0.02355 -0.0414,0.03772 -0.0378,0.04549 -0.0277,0.03365 -0.11737,0.09296 -0.34755,0.274159 -0.14977,0.15047 -0.15946,0.143598 -0.16433,0.167039 -0.0787,0.123164 -1.85754,1.573743 -0.4317,0.364845 -0.9854,0.842566 -0.35395,0.340995 -0.76123,0.675003 -0.10756,0.08629 -0.0386,0.0208 -0.14125,0.0381 -0.086,0.0492 -0.10387,0.08601 -0.0897,0.05345 -0.1446,0.119243 -0.0955,0.09038 -0.0459,0.03839 -0.0493,-0.0016 0.0303,-0.02433 -0.0606,-0.08304 -0.48348,0.408601 -0.8599,-1.005991 -0.97186,0.811557 -0.20657,-0.233472 -1.13895,0.984901 -2.38998,2.073776 0.91959,1.180438 -0.12631,0.10667 0.18502,0.23383 -0.24152,0.18254 -0.0587,0.0558 -0.0441,0.059 -0.0347,0.0655 -0.14026,0.10748 -0.54004,0.38043 -1.44489,1.10042 -0.0128,-0.0182 -0.18408,0.14498 -0.11045,-0.15265 -0.44239,0.29302 -0.10997,0.0317 0.0116,0.0295 -0.15793,0.10565 -0.85496,0.57282 -0.0188,0.009 -0.0204,0.009 -0.20991,0.14382 -0.27313,0.18711 -0.0411,0.0288 -0.54758,0.3623 -0.14734,0.10204 -1.08545,0.64954 -0.2894,0.20348 -0.4571,0.28936 -0.49126,0.3253 -0.47655,0.35246 -0.32433,0.26392 -0.68376,0.59142 -0.5568,0.526 -0.22382,0.16464 -0.29635,0.25769 -0.59197,0.44203 -0.33578,0.27569 -0.31943,0.27071 -0.13241,0.0966 -0.1839,0.16737 -0.25719,0.23826 -0.48293,0.39408 -0.62318,0.53706 -0.13082,0.13771 -0.23287,0.19446 -0.47483,0.42947 -0.68272,0.5958 -0.0643,0.0591 -0.54122,0.45942 -0.17488,0.11685 -0.0793,0.056 -0.78958,0.59953 -1.08621,0.853 -1.26424,0.99063 -0.45003,0.3772 -0.4478,0.38508 -0.0657,0.0439 -0.0752,0.0271 -0.0528,0.0255 -0.31275,0.24773 -1.710962,1.41885 -1.019282,0.84129 -1.79093,1.47727 -0.921044,0.78782 -0.845148,0.67722 -0.742795,0.62909 -0.727843,0.60132 -2.060712,1.67211 -1.893597,1.54168 -0.36947,0.30603 -0.112548,0.10245 -0.08163,0.0743 -0.304514,0.25289 -1.368214,1.11312 -0.06665,0.044 -0.146595,0.0969 -0.244628,0.23109 -0.22985,0.18529 -0.744896,0.61392 -0.179947,0.15124 -0.62719,0.50593 -0.237967,0.19924 -0.456129,0.382 -0.756123,0.63274 -0.398975,0.32861 -0.174292,0.1435 -0.237943,0.20504 -0.962604,-0.45536 -0.160491,0.0885 -0.01497,0.0439 0.02335,0.0424 0.189501,-0.1043 0.782154,0.3723 0.02768,0.10371 -0.458726,0.38429 -0.0644,-0.077 -0.01012,-0.0129 -0.045,0.0375 -0.03279,-0.0403 0.0072,-0.006 -0.295448,-0.37302 0.04972,-0.0387 -0.03011,-0.0385 -0.119165,0.0929 0.03003,0.0385 0.04865,-0.0379 0.295897,0.37501 0.03286,0.0394 -0.02188,0.0183 -0.01819,0.0154 0.07479,0.0894 -0.534988,0.44111 -0.247234,-0.93373 0.135392,-0.16698 -0.03271,-0.0259 -0.04373,-0.0177 -0.08796,0.1137 -0.354571,0.0741 -0.863245,0.60675 0.03132,0.0421 0.853493,-0.59852 0.299693,-0.0635 0.231985,0.88893 -0.471791,0.31015 -0.461593,-0.6719 -0.128818,0.0903 0.01169,0.0157 0.106512,-0.0744 0.447086,0.65479 -0.119858,0.0802 0.01343,0.0175 -0.268767,0.19639 -0.463372,-0.61504 0.09158,-0.0721 -0.0091,-0.0102 -0.01161,-0.0146 -0.21647,0.17352 0.01482,0.0193 0.10004,-0.0786 0.484172,0.63772 0.322146,-0.23905 -0.0078,-0.0145 0.575027,-0.38394 0.02503,0.0966 -0.41094,0.34379 -0.244212,0.20436 -0.257942,0.20707 -1.272577,1.0671 -1.046955,0.87502 -0.376906,0.31075 -0.06167,0.0509 -0.124413,0.1426 -0.02856,0.0324 -0.04093,0.0457 -0.07003,0.0761 -0.117976,0.1255 -0.131344,0.13974 -1.034811,0.85846 -0.03903,0.115 -0.005,0.0141 -0.0041,0.0124 -0.08348,0.24854 -2.174966,-0.7338 -0.1899,0.15262 0.170532,0.05 0.04329,-0.041 0.04111,0.0168 0.03305,-0.0233 0.07837,0.0227 0.07929,0.0631 0.07903,0.0506 0.08652,0.0202 0.09723,0.005 0.08419,0.0241 0.09479,0.0479 0.108195,0.0576 0.10419,0.0378 0.09214,0.0103 0.09678,0.0188 0.105267,0.0565 0.0695,0.0635 0.102503,0.0436 0.119769,0.021 0.09055,-0.008 0.08502,0.0174 0.07897,0.0403 0.03512,0.0286 0.02653,0.0386 0.306805,0.11034 -2.255415,1.82687 -0.455883,-0.16133 -0.589993,0.47307 -0.67665,0.54249 -0.09911,0.0795 -0.02414,0.0193 -0.211401,0.16629 -0.142329,0.11192 -0.338649,0.26472 -0.08343,0.069 -0.07762,0.0791 -0.05265,0.0967 -0.03052,0.0971 -0.02532,0.0794 -0.04362,0.0869 -0.04632,0.0752 -0.05987,0.0557 -0.09745,-0.0272 -0.527544,0.43115 -0.188095,0.15438 -0.222715,0.19453 -0.0987,0.0798 -0.104597,0.0906 -0.137634,0.0855 -0.119069,0.0684 -0.06168,0.0299 -0.07026,0.0417 -0.06121,0.0562 -0.0433,0.0491 -0.03541,0.0723 -0.06727,0.0175 -0.04593,0.0372 -0.04254,0.0514 -0.09128,0.0457 -1.377509,-1.75408 -0.12293,0.0955 0.04221,0.0538 -0.03926,0.03 0.03036,0.0401 -0.06962,0.0551 -0.02914,-0.0381 -0.05868,0.046 0.753272,0.95995 0.06284,-0.0504 -0.04935,-0.0619 0.100454,-0.0768 0.460432,0.60446 -0.130146,0.10214 0.223621,0.28949 0.02689,9.3e-4 0.0476,-0.0401 0.0677,0.011 -0.497191,0.39261 -1.220262,-1.51909 -0.152025,0.11886 1.141431,1.44962 -0.473418,0.38128 -0.761407,-0.98229 -0.347917,-0.44031 -0.2239,-0.29115 -0.320396,0.25393 1.359489,1.69004 -0.05998,0.0408 0.0063,0.0188 0.02718,0.0992 -0.0084,0.0255 -0.0076,0.0171 -0.01421,0.016 -0.01902,0.0107 -0.02044,0.004 -0.021,-0.005 -0.09688,-0.0531 -0.27539,0.22365 -0.137264,0.10781 -0.0339,0.0266 -0.506406,0.4111 -0.01686,-0.0214 -0.01748,-0.0222 -0.04784,-0.0609 -0.152389,0.12 0.02014,0.0255 0.01605,0.0202 0.04607,0.0587 -0.27684,0.23117 -0.377017,0.32212 -1.514604,-1.9099 -0.373317,0.28748 1.491631,1.9094 -0.717788,0.58627 -1.557737,-1.99567 -0.332937,0.25258 2.129132,2.67889 -1.039763,0.8209 -2.109009,-2.6713 -0.32414,0.24694 2.121478,2.67374 -0.810747,0.65082 -0.06973,-0.0864 -0.03227,0.0281 -0.0715,-0.0868 -0.04598,0.0389 -0.521179,-0.65697 -0.760754,-0.95911 -0.620242,-0.78183 -0.04307,-0.0392 -0.05217,-0.0162 -0.05412,0.006 -0.06887,0.0532 -0.288689,0.22369 -0.07994,0.0614 -0.0158,0.0538 0.0063,0.0482 0.02861,0.0508 0.617346,0.78011 0.814556,1.02932 0.611367,0.77259 0.02067,0.0261 -0.101716,0.0944 -0.03363,0.0189 -0.0289,0.008 -0.03836,-0.003 -0.07056,-0.01 -0.05845,-0.006 -0.03854,0.0105 -0.02705,0.0206 -0.02155,0.0238 -0.01714,0.0309 -0.0073,0.041 0.0024,0.0391 0.0098,0.0314 0.02053,0.0254 0.0215,0.0239 0.03174,0.0164 -0.501204,0.39501 -0.79634,-0.97773 -1.168856,-1.51857 -0.02983,-0.0256 -0.0439,-0.0171 -0.03071,0.009 -0.350743,0.27216 0.826196,1.06136 0.378667,0.47601 0.02665,0.0334 0.03039,0.0381 0.01451,0.0182 0.03829,0.0482 0.005,0.007 0.710726,0.88335 -0.69286,0.5502 -0.3202,0.0771 -0.698993,-0.88854 -0.144559,-0.18375 -0.09392,-0.11939 0.0516,-0.0388 -0.247909,-0.30753 -0.04746,0.0364 -0.01645,-0.0208 -0.587783,-0.74718 -0.126768,-0.16113 -0.112855,-0.14023 -0.01496,-0.0182 -0.02244,-0.0104 -0.02315,0.002 -0.02178,0.011 -0.08493,0.0721 0.01792,0.0271 0.02208,0.0331 0.03737,-0.0282 0.0611,0.002 0.003,0.003 0.07511,0.0983 -0.285229,0.23116 0.193452,0.2448 0.331747,0.41989 0.534037,0.66744 0.341663,0.42708 -0.257343,0.20516 -0.05203,0.0409 -0.0051,0.004 -0.307075,0.24752 -1.441611,-1.80462 -0.20663,0.15429 1.085337,1.36655 0.170685,0.21484 0.100561,0.12647 0.09022,0.1132 -0.200973,0.16 -0.789588,0.62712 -1.424007,-1.83976 -0.200335,0.15042 1.439646,1.82754 -0.658704,0.52534 -0.220634,-0.28652 -0.420899,0.31945 -0.476187,0.37642 -0.272524,0.21084 0.236648,0.29485 -0.155355,0.12427 -0.276454,-0.3436 -0.03393,0.0267 -0.145072,0.11384 -0.02234,0.0176 0.241397,0.30624 -0.02271,0.0174 -0.06959,-0.0865 -0.06089,0.0455 0.112625,0.1422 -0.05778,0.0451 -0.07527,-0.0955 -0.08453,-0.10617 -0.0309,-0.0388 -0.441915,0.35151 -1.251389,-1.57065 -0.01221,-0.0106 -0.01051,-0.005 -0.01211,-0.002 -0.01365,-2.4e-4 -0.01631,0.004 -0.694535,0.55048 -0.0098,0.0106 -0.0056,0.0108 -0.0041,0.0119 -0.0011,0.0105 3.73e-4,0.0148 0.0048,0.0118 1.21449,1.53041 0.04066,0.0513 -0.372301,0.28951 0.04501,0.0582 0.147607,0.18512 0.115328,0.15099 -0.612607,0.49059 -0.127135,-0.16282 -1.729236,1.39853 -0.0996,0.0799 -0.695503,0.55752 -0.08037,-0.0981 -0.200242,0.15987 0.07588,0.10584 -0.283545,0.22613 -0.07896,-0.0977 -0.196663,0.15077 0.06572,0.10465 -0.245659,0.30947 -0.058,0.072 -1.193045,1.48809 -0.140375,0.17901 -0.107667,0.1372 -0.0066,0.008 -0.03198,0.0389 -0.03321,0.0388 -0.0046,0.006 -0.02749,0.0349 -0.01485,0.0176 -0.941987,1.1847 -1.010896,-1.27566 -0.220241,0.28075 0.645658,0.8071 0.370555,0.46327 -0.07573,0.0962 -0.192446,0.24426 -0.02424,0.0308 -0.271056,-0.0904 -0.552661,0.69449 -0.244439,0.30723 -1.027597,-0.46391 -0.193279,0.33374 1.820167,1.06362 -0.380918,0.65005 -1.752487,-1.03517 -0.02784,-0.009 -0.01644,-3.2e-4 -0.0122,0.006 -0.01543,0.0189 -0.214373,0.36163 -0.0037,0.0272 0.0098,0.0213 0.01563,0.0174 1.755385,1.0423 -0.353779,0.60774 -1.775058,-1.03613 -0.01983,-0.004 -0.01829,1e-5 -0.01993,0.0128 -0.221529,0.35982 -0.0037,0.022 0.0042,0.0205 0.01712,0.0214 1.77103,1.05292 -0.365849,0.61794 -0.418028,-0.25259 -1.317453,-0.78301 -0.0185,-0.004 -0.02022,-0.003 -0.01982,0.007 -0.01467,0.0145 -0.210926,0.35801 -0.0059,0.0142 4.09e-4,0.0147 0.0043,0.0131 0.0084,0.011 1.762842,1.04318 -0.195412,0.32974 0.464329,0.27298 0.0317,0.0392 0.122522,0.0738 0.02985,0.0316 -0.01587,0.0305 -0.02851,-0.014 -0.01919,-0.001 -0.01498,0.006 -0.01383,0.0125 -0.526844,0.89818 -0.371039,-0.21384 -0.175469,0.30018 -0.06121,0.0345 -1.962611,-1.145 -0.018,-0.008 -0.0147,0.002 -0.01569,0.008 -0.01516,0.0157 -0.212874,0.35332 -0.006,0.0274 0.0082,0.0206 0.01929,0.0167 0.02195,0.0112 1.968147,1.15426 -0.197587,0.34881 0.36383,0.21356 -0.166162,0.28661 -0.180434,0.30302 -0.01108,-0.0122 -0.06051,0.0478 -0.03401,0.027 -0.03092,0.0245 -0.05774,0.0457 0.03984,0.0486 -0.143712,0.22934 -0.264113,0.42911 -0.02855,-0.0366 -0.05901,0.0476 -0.03682,0.0296 -0.0347,0.0278 -0.06155,0.0497 0.08068,0.10415 -0.424346,0.67132 -0.130284,-0.0996 -1.129662,-0.54434 -0.03736,-0.0263 -0.02335,-0.0259 -0.02533,-0.0159 -0.03255,-0.001 -0.02629,0.0137 -0.04301,-0.0211 -0.956223,-0.46441 -0.01857,0.0447 0.492641,0.24716 -0.02885,0.067 0.162324,0.0787 0.296205,0.14697 -0.0546,0.10005 -0.03025,0.0599 -0.377061,0.75968 -0.19297,0.37058 -0.05133,0.0977 0.01902,0.0382 0.004,0.0488 0.05216,0.0415 0.0723,0.0321 0.178503,0.0783 0.116705,0.072 0.07414,0.0455 0.05433,0.034 0.04044,0.0189 0.05827,0.0119 0.01253,0.003 0.06034,0.0164 0.07874,0.0229 0.176139,0.0433 -0.227254,0.43237 -0.221971,0.47185 -0.498077,-0.24466 -0.03108,-0.0161 -0.03192,-0.008 -0.0046,0.0347 0.0022,0.035 0.01208,0.0346 0.01055,0.0213 -0.116183,0.2277 0.497642,0.24144 -0.9032,1.82936 -0.02557,0.0513 -0.0078,0.0162 -0.08788,0.17981 -0.0073,0.015 -0.02864,0.0586 -0.0017,0.004 -0.07847,0.15921 -0.775438,1.54034 -0.09655,0.19183 -0.931982,-0.46485 -0.151074,0.2967 0.94234,0.46817 -0.216034,0.43247 0.01493,0.009 0.01076,0.007 0.0084,0.006 0.0053,0.006 0.02399,0.0235 0.01898,0.037 0.0039,0.055 -0.0145,0.048 -0.02861,0.0507 -0.04036,0.0276 -0.0454,0.0124 -0.04279,-0.003 -0.0041,-6.1e-4 -0.01156,-0.003 -0.01277,-0.004 -0.01832,-0.005 -0.02844,0.0582 -1.912882,-0.83957 -0.464614,-0.20393 -0.189255,-0.0829 -0.131739,0.29942 0.553391,0.24377 1.55322,0.68457 0.124152,0.0548 0.319372,0.1411 -0.284859,0.54676 -0.125887,0.2537 -0.151817,0.3058 -0.05259,0.10592 -0.07184,0.14478 -0.151128,0.30517 -0.529691,1.06902 -2.311215,-1.24742 -1.183861,2.16971 -0.414721,-0.22687 -0.08466,0.16527 0.420758,0.23045 0.516896,0.28319 0.01345,0.007 1.411352,0.76923 0.01291,0.007 0.41838,0.23054 -0.469548,0.91276 -0.317021,0.63526 -0.169825,0.34036 -0.02794,0.0543 -0.278611,0.48023 -0.03358,0.0545 -0.568915,0.94944 -0.02239,-0.0136 -0.129997,0.21586 0.02211,0.0135 -0.614155,1.00548 -0.01806,-0.0118 -0.138572,0.2266 0.01954,0.0114 -0.659205,1.08702 -0.01936,-0.0113 -0.1311,0.2159 0.01853,0.011 -0.510469,0.82784 -0.424719,-0.25959 -0.02604,0.0444 -0.01014,0.0167 -0.0091,0.0139 -0.141238,0.23903 -0.227443,-0.13903 -0.484619,-0.29645 -0.104474,-0.064 -0.166167,-0.10145 -0.111401,-0.0686 -0.06585,-0.0399 -0.09943,-0.0608 -0.06069,-0.0373 -0.04864,-0.0299 -0.0481,-0.0297 -0.0363,-0.0227 -0.04828,-0.0298 -0.04064,-0.0244 -0.04782,-0.0295 -0.04644,-0.029 -0.263425,-0.16121 -0.0189,-0.0111 -0.07319,-0.003 -0.04637,-0.003 -0.03911,0.0665 -0.01742,0.0289 -0.01082,0.0182 -0.05885,0.0952 -0.01039,0.0173 -0.0092,0.0145 0.05976,0.10782 0.03493,0.0209 1.885041,1.15451 0.01,0.006 0.0084,0.006 0.0084,0.006 0.235909,0.14362 -0.349682,0.55844 -0.70421,-0.43225 -1.874395,-1.15047 -0.216284,0.3524 0.387629,0.23771 0.13155,0.0808 1.247182,0.76268 0.552971,0.34167 -0.100921,0.16584 -0.0074,0.0125 -0.0073,0.0124 -0.01553,0.0244 0.413998,0.25406 -0.441029,0.73533 -0.467394,0.74116 -1.316268,-0.83891 -0.01991,-0.0115 -0.02091,-0.005 -0.01922,0.008 -0.01318,0.0134 -0.04488,0.0704 -0.133752,-0.0854 -0.132831,-0.0848 -0.126149,-0.0806 -0.126777,-0.0809 0.01003,-0.0166 -0.108967,-0.0706 -0.100467,-0.0651 -0.01105,0.0161 -0.130791,-0.0816 -0.127149,-0.0807 -0.121973,-0.0774 -0.130927,-0.0832 -0.01879,-0.0122 -0.02247,-0.007 -0.01802,7.4e-4 -0.01231,0.004 -0.01147,0.007 -0.01337,0.0113 -0.01592,0.0254 -0.02769,0.0485 -0.07136,0.12146 -0.08021,0.13625 -0.07792,0.13253 -0.07705,0.13125 -0.07709,0.13107 -0.07696,0.13076 -0.07874,0.134 -0.07824,0.13307 -0.07631,0.12972 -0.07669,0.13035 -0.07742,0.13186 -0.07732,0.13137 -0.07495,0.12747 -0.07754,0.13191 -0.07906,0.13452 -0.07356,0.1252 -0.07769,0.13224 -0.07892,0.13419 -0.07637,0.12984 -0.07773,0.13236 -0.07847,0.13335 -0.07535,0.12819 -0.07594,0.1291 -0.07669,0.13035 -0.07718,0.1313 -0.07645,0.13031 -0.07851,0.13371 -0.01584,0.0278 -0.0242,0.0401 -0.02619,0.0448 -0.01481,0.0253 -0.06935,0.11764 -0.0173,0.0287 -0.02171,0.0367 -0.02467,0.0413 -0.01212,0.0214 -0.06798,0.11512 -0.07439,0.12614 -0.07421,0.12569 -0.09334,0.15826 -0.310146,0.52549 -0.04881,0.0864 -0.01323,0.024 -0.02911,0.0493 -0.07763,0.13265 -0.06487,0.11126 -0.06706,0.11472 -0.08999,0.15436 -0.02076,0.0343 -0.0036,0.0138 0.0047,0.0101 0.0062,0.006 0.01038,0.003 0.01061,-0.003 0.0084,-0.007 0.02043,-0.0362 0.0053,0.003 0.297304,-0.50837 0.262307,0.18651 0.241476,0.16391 0.07913,0.0501 0.125717,0.0798 0.207754,0.13866 0.03664,0.025 -0.19948,0.3103 -0.08543,0.0408 -0.05823,0.0371 -0.059,0.0483 -0.04828,0.0501 -0.03742,0.044 -0.02988,0.0459 -0.03332,0.0594 -0.02763,0.0647 -0.01837,0.0703 -0.01414,0.0797 -0.0019,0.0699 5.56e-4,0.0386 -0.20414,0.30875 -0.02634,-0.0174 -0.206218,-0.14116 -0.07707,-0.0528 -0.107312,-0.0732 -0.05091,-0.0352 -0.179856,-0.1234 -0.05881,-0.0404 -0.189322,-0.12983 0.27034,-0.46317 -0.0053,-0.003 0.01742,-0.0316 0.0055,-0.0148 -0.0029,-0.009 -0.0078,-0.008 -0.0112,-0.003 -0.01283,0.003 -0.01083,0.0104 -0.01783,0.03 -0.269336,0.46102 -0.0262,0.0448 -0.02642,0.0455 -0.0785,0.13345 -0.07819,0.13294 -0.07704,0.13096 -0.13197,0.22453 -0.369662,0.6224 -0.398296,0.60847 -0.19881,0.30322 -0.210722,0.32149 -1.052863,1.61263 -0.147808,0.2178 -0.01139,0.0222 -0.0047,0.0217 0.0049,0.0216 0.01492,0.0196 0.09814,0.0819 -0.01347,0.0168 0.375315,0.29738 -0.720316,0.89226 -0.02279,-0.0192 0.0056,-0.014 0.0029,-0.0123 -4.48e-4,-0.0146 -0.0026,-0.0119 -0.0015,-0.0146 -7.51e-4,-0.0113 4.35e-4,-0.0142 -5.67e-4,-0.0169 -0.0044,-0.0154 -0.0085,-0.0132 -0.01026,-0.008 -0.01405,-0.006 -0.01464,-0.001 -0.02099,-3e-5 -0.01989,-0.006 -0.0172,-0.006 -0.01597,-1.3e-4 -0.02065,0.004 -0.01527,0.007 -0.01785,0.012 -0.02851,-0.0234 0.01371,-0.0173 0.02128,-0.0135 0.02605,-0.0126 0.02861,-0.007 0.0303,-0.002 0.0016,-0.0353 0.02578,0.002 0.02425,0.007 0.01974,0.0103 0.02477,0.0168 0.0351,-0.0514 -0.04792,-0.0296 -0.03217,-0.0113 -0.03231,-0.006 -0.03306,-6.9e-4 -0.02867,0.005 -0.0326,0.007 -0.03217,0.0118 -0.02776,0.0119 -0.02862,0.0212 -0.03278,0.0367 -0.06278,-0.0471 -0.02153,-0.009 -0.02416,-0.003 -0.02279,0.008 -0.01885,0.0149 -0.01988,0.027 -0.231331,0.35213 -0.0036,0.006 -0.06137,0.0956 -0.0017,0.002 -0.116045,0.17307 z m 0.135745,2.14991 0.07189,0.0174 -0.007,0.0299 -0.07203,-0.0168 z m -0.04236,0.17654 0.06942,0.0162 -0.0128,0.0574 -0.06956,-0.0156 z m 0.153258,-0.15028 0.108332,0.0252 -0.0071,0.0302 -0.108377,-0.0253 z m -0.0436,0.17589 0.107176,0.0249 -0.0124,0.056 -0.106375,-0.0233 z m 0.228908,-0.13374 0.108504,0.0255 -0.0073,0.0308 -0.108581,-0.0253 z m -0.04254,0.17724 0.258436,0.0602 0.119948,0.0281 0.01353,0.003 -0.01006,0.0111 -0.272586,-0.0652 -0.03103,0.0386 -0.09095,-0.0201 z m 0.190231,-0.14256 0.07135,0.0162 -0.0066,0.0317 -0.07125,-0.0167 z m -0.08237,0.24197 0.01405,-0.0182 0.233977,0.0547 -0.0807,0.0949 z m 9.432759,6.14429 0.0053,-0.007 0.0068,-0.006 0.0078,-0.003 0.0098,-2.6e-4 0.0096,0.002 0.0084,0.006 0.0064,0.008 0.0038,0.009 2.54e-4,0.01 -0.0032,0.009 -0.0053,0.007 -0.0077,0.005 -0.0097,0.003 -0.0094,-6.4e-4 -0.0083,-0.004 -0.0075,-0.006 -0.0046,-0.007 -0.0029,-0.009 2.74e-4,-0.009 z"
       opacity="1"
       stroke="#000000"
       stroke-width="0.5"
       id="path1"
       style="fill:#ffffff;fill-opacity:1;stroke:#0e3e5d;stroke-width:0.529167;stroke-dasharray:none;stroke-opacity:1" />
  </g>
</svg>
