<?xml version="1.0" encoding="UTF-8" standalone="no"?>
<!-- Created with Inkscape (http://www.inkscape.org/) -->

<svg
   width="1920"
   height="1080"
   viewBox="0 0 1920 1080"
   version="1.1"
   id="svg1"
   xmlns="http://www.w3.org/2000/svg"
   xmlns:svg="http://www.w3.org/2000/svg">
  <defs
     id="defs1" />
  <g
     id="layer1">
    <path
       d="m 234.23576,685.53001 h -75.76729 l 16.09217,-115.3272 H 96.781822 L 80.689654,685.53001 H 4.2518535 L 43.811768,403.91707 H 196.68737 l 67.72121,63.69816 z m -52.97005,-166.28574 7.37557,-50.95853 q -12.73963,-12.06913 -14.08064,-12.73963 h -61.68665 l -9.3871,63.69816 z m 350.67406,166.28574 h -75.76729 l 16.09217,-115.3272 h -77.77882 l -16.09217,115.3272 h -76.4378 l 39.55992,-281.61294 h 152.8756 l 67.72121,63.69816 z m -52.97005,-166.28574 7.37557,-50.95853 Q 473.60566,456.21661 472.26465,455.54611 H 410.578 l -9.3871,63.69816 z m 380.84688,-52.29954 -86.49541,77.77881 65.03918,77.77881 -8.71659,63.02766 h -75.76729 l 8.71659,-63.69816 -45.59448,-51.62904 h -24.80876 l -16.09217,115.3272 h -76.4378 l 39.55992,-281.61294 h 76.4378 l -16.76268,115.3272 h 24.80876 l 60.34563,-51.62904 9.3871,-63.69816 h 75.7673 z m 275.5774,140.80647 -87.8364,77.77881 H 894.68203 l 6.70507,-51.62904 h 127.3963 l 30.8434,-25.47926 5.364,-38.2189 H 910.7742 l 12.06912,-88.50693 89.17748,-77.77881 h 152.2051 l -7.3756,51.62904 h -126.7259 l -29.5023,24.80876 -0.67047,-0.67051 -5.36405,38.88941 h 153.54612 z m 132.0896,77.77881 h -76.4378 l 39.5599,-281.61294 h 76.4378 z m 309.7736,-77.77881 -87.8364,77.77881 h -152.8756 l 39.5599,-281.61294 h 152.2051 l 66.3802,77.77881 z m -76.4378,2.01152 18.7742,-129.40785 h -0.6705 l -22.7972,-24.80876 h -50.9586 l -25.4792,178.35486 h 51.629 z M 1891.7238,455.54611 H 1764.998 l -30.8433,25.47926 -4.6936,37.5484 h 153.5461 l -7.3756,51.62904 h -153.5461 l -8.7166,63.02766 h 153.5461 l -7.3755,52.29954 h -229.9839 l 28.1613,-203.83413 89.1774,-77.77881 h 152.2051 z"
       id="text1"
       style="font-size:670.507px;font-family:hammerhead;-inkscape-font-specification:hammerhead;fill:#ffffff;stroke:#0e3e5d;stroke-width:4.02305;stroke-linecap:round;stroke-linejoin:bevel;paint-order:stroke fill markers"
       transform="scale(1.0087476,0.99132825)"
       aria-label="aakside" />
  </g>
</svg>
